<ttFont>
    <TTGlyph name=".notdef" xMin="193" yMin="0" xMax="1034" yMax="1462">
      <contour>
        <pt x="193" y="1462" on="1"/>
        <pt x="1034" y="1462" on="1"/>
        <pt x="1034" y="0" on="1"/>
        <pt x="193" y="0" on="1"/>
      </contour>
      <contour>
        <pt x="297" y="104" on="1"/>
        <pt x="930" y="104" on="1"/>
        <pt x="930" y="1358" on="1"/>
        <pt x="297" y="1358" on="1"/>
      </contour>
    </TTGlyph>
    <TTGlyph name="glyph00096" xMin="184" yMin="0" xMax="2599" yMax="1483">
      <component glyphName="uni0548" x="0" y="0" flags="0x4"/>
      <component glyphName="uni0552" x="1497" y="0" flags="0x4"/>
    </TTGlyph>
    <TTGlyph name="glyph00097" xMin="174" yMin="0" xMax="1858" yMax="1118">
      <component glyphName="uni0578" x="0" y="0" flags="0x4"/>
      <component glyphName="uni0582" x="1266" y="0" flags="0x4"/>
    </TTGlyph>
    <TTGlyph name="uni0531" xMin="184" yMin="-20" xMax="1675" yMax="1462">
      <contour>
        <pt x="1311" y="1462" on="1"/>
        <pt x="1311" y="499" on="1"/>
        <pt x="1309" y="481" on="1"/>
        <pt x="1337" y="485" on="0"/>
        <pt x="1370" y="485" on="1"/>
        <pt x="1523" y="485" on="0"/>
        <pt x="1675" y="327" on="0"/>
        <pt x="1675" y="176" on="1"/>
        <pt x="1675" y="0" on="1"/>
        <pt x="1499" y="0" on="1"/>
        <pt x="1499" y="129" on="1"/>
        <pt x="1499" y="332" on="0"/>
        <pt x="1325" y="332" on="1"/>
        <pt x="1303" y="332" on="1"/>
        <pt x="1284" y="330" on="1"/>
        <pt x="1235" y="163" on="0"/>
        <pt x="954" y="-20" on="0"/>
        <pt x="741" y="-20" on="1"/>
        <pt x="476" y="-20" on="0"/>
        <pt x="184" y="269" on="0"/>
        <pt x="184" y="520" on="1"/>
        <pt x="184" y="1462" on="1"/>
        <pt x="369" y="1462" on="1"/>
        <pt x="369" y="514" on="1"/>
        <pt x="369" y="332" on="0"/>
        <pt x="562" y="139" on="0"/>
        <pt x="752" y="139" on="1"/>
        <pt x="933" y="139" on="0"/>
        <pt x="1128" y="333" on="0"/>
        <pt x="1128" y="516" on="1"/>
        <pt x="1128" y="1462" on="1"/>
      </contour>
    </TTGlyph>
    <TTGlyph name="uni0532" xMin="184" yMin="0" xMax="1262" yMax="1483">
      <contour>
        <pt x="184" y="0" on="1"/>
        <pt x="184" y="946" on="1"/>
        <pt x="184" y="1195" on="0"/>
        <pt x="470" y="1483" on="0"/>
        <pt x="721" y="1483" on="1"/>
        <pt x="979" y="1483" on="0"/>
        <pt x="1262" y="1196" on="0"/>
        <pt x="1262" y="942" on="1"/>
        <pt x="1262" y="922" on="1"/>
        <pt x="1077" y="922" on="1"/>
        <pt x="1077" y="948" on="1"/>
        <pt x="1077" y="1127" on="0"/>
        <pt x="898" y="1323" on="0"/>
        <pt x="719" y="1323" on="1"/>
        <pt x="550" y="1323" on="0"/>
        <pt x="367" y="1130" on="0"/>
        <pt x="367" y="946" on="1"/>
        <pt x="367" y="678" on="1"/>
        <pt x="1262" y="678" on="1"/>
        <pt x="1262" y="518" on="1"/>
        <pt x="367" y="518" on="1"/>
        <pt x="367" y="0" on="1"/>
      </contour>
    </TTGlyph>
    <TTGlyph name="uni0533" xMin="113" yMin="0" xMax="1448" yMax="1483">
      <contour>
        <pt x="915" y="0" on="1"/>
        <pt x="915" y="541" on="1"/>
        <pt x="631" y="541" on="1"/>
        <pt x="386" y="541" on="0"/>
        <pt x="113" y="794" on="0"/>
        <pt x="113" y="1012" on="1"/>
        <pt x="113" y="1232" on="0"/>
        <pt x="377" y="1483" on="0"/>
        <pt x="612" y="1483" on="1"/>
        <pt x="844" y="1483" on="0"/>
        <pt x="1100" y="1198" on="0"/>
        <pt x="1100" y="942" on="1"/>
        <pt x="1100" y="700" on="1"/>
        <pt x="1448" y="700" on="1"/>
        <pt x="1448" y="541" on="1"/>
        <pt x="1100" y="541" on="1"/>
        <pt x="1100" y="0" on="1"/>
      </contour>
      <contour>
        <pt x="915" y="700" on="1"/>
        <pt x="915" y="948" on="1"/>
        <pt x="915" y="1127" on="0"/>
        <pt x="759" y="1323" on="0"/>
        <pt x="602" y="1323" on="1"/>
        <pt x="454" y="1323" on="0"/>
        <pt x="295" y="1164" on="0"/>
        <pt x="295" y="1012" on="1"/>
        <pt x="295" y="863" on="0"/>
        <pt x="462" y="700" on="0"/>
        <pt x="621" y="700" on="1"/>
      </contour>
    </TTGlyph>
    <TTGlyph name="uni0534" xMin="41" yMin="0" xMax="1413" yMax="1483">
      <contour>
        <pt x="41" y="922" on="1"/>
        <pt x="41" y="946" on="1"/>
        <pt x="41" y="1196" on="0"/>
        <pt x="311" y="1483" on="0"/>
        <pt x="545" y="1483" on="1"/>
        <pt x="796" y="1483" on="0"/>
        <pt x="1065" y="1201" on="0"/>
        <pt x="1065" y="942" on="1"/>
        <pt x="1065" y="852" on="1"/>
        <pt x="1413" y="852" on="1"/>
        <pt x="1413" y="692" on="1"/>
        <pt x="1065" y="692" on="1"/>
        <pt x="1065" y="0" on="1"/>
        <pt x="881" y="0" on="1"/>
        <pt x="881" y="948" on="1"/>
        <pt x="881" y="1127" on="0"/>
        <pt x="715" y="1323" on="0"/>
        <pt x="549" y="1323" on="1"/>
        <pt x="392" y="1323" on="0"/>
        <pt x="223" y="1127" on="0"/>
        <pt x="223" y="946" on="1"/>
        <pt x="223" y="922" on="1"/>
      </contour>
    </TTGlyph>
    <TTGlyph name="uni0535" xMin="184" yMin="-20" xMax="1262" yMax="1462">
      <contour>
        <pt x="369" y="1462" on="1"/>
        <pt x="369" y="944" on="1"/>
        <pt x="1262" y="944" on="1"/>
        <pt x="1262" y="784" on="1"/>
        <pt x="369" y="784" on="1"/>
        <pt x="369" y="516" on="1"/>
        <pt x="369" y="334" on="0"/>
        <pt x="548" y="139" on="0"/>
        <pt x="719" y="139" on="1"/>
        <pt x="895" y="139" on="0"/>
        <pt x="1077" y="332" on="0"/>
        <pt x="1077" y="514" on="1"/>
        <pt x="1077" y="541" on="1"/>
        <pt x="1262" y="541" on="1"/>
        <pt x="1262" y="520" on="1"/>
        <pt x="1262" y="269" on="0"/>
        <pt x="984" y="-20" on="0"/>
        <pt x="729" y="-20" on="1"/>
        <pt x="472" y="-20" on="0"/>
        <pt x="184" y="266" on="0"/>
        <pt x="184" y="516" on="1"/>
        <pt x="184" y="1462" on="1"/>
      </contour>
    </TTGlyph>
    <TTGlyph name="uni0536" xMin="98" yMin="-205" xMax="1245" yMax="1483">
      <contour>
        <pt x="98" y="307" on="1"/>
        <pt x="283" y="307" on="1"/>
        <pt x="283" y="156" on="1"/>
        <pt x="469" y="156" on="1"/>
        <pt x="729" y="354" on="0"/>
        <pt x="979" y="730" on="0"/>
        <pt x="979" y="950" on="1"/>
        <pt x="979" y="1131" on="0"/>
        <pt x="811" y="1323" on="0"/>
        <pt x="651" y="1323" on="1"/>
        <pt x="478" y="1323" on="0"/>
        <pt x="303" y="1128" on="0"/>
        <pt x="303" y="952" on="1"/>
        <pt x="303" y="922" on="1"/>
        <pt x="119" y="922" on="1"/>
        <pt x="119" y="942" on="1"/>
        <pt x="119" y="1197" on="0"/>
        <pt x="398" y="1483" on="0"/>
        <pt x="651" y="1483" on="1"/>
        <pt x="894" y="1483" on="0"/>
        <pt x="1174" y="1195" on="0"/>
        <pt x="1174" y="946" on="1"/>
        <pt x="1174" y="524" on="0"/>
        <pt x="690" y="156" on="1"/>
        <pt x="985" y="156" on="1"/>
        <pt x="1245" y="156" on="0"/>
        <pt x="1245" y="-94" on="1"/>
        <pt x="1245" y="-205" on="1"/>
        <pt x="1061" y="-205" on="1"/>
        <pt x="1061" y="-100" on="1"/>
        <pt x="1061" y="0" on="0"/>
        <pt x="934" y="0" on="1"/>
        <pt x="283" y="0" on="1"/>
        <pt x="283" y="-205" on="1"/>
        <pt x="98" y="-205" on="1"/>
      </contour>
    </TTGlyph>
    <TTGlyph name="uni0537" xMin="199" yMin="-287" xMax="1227" yMax="1462">
      <contour>
        <pt x="383" y="944" on="1"/>
        <pt x="1206" y="944" on="1"/>
        <pt x="1206" y="784" on="1"/>
        <pt x="383" y="784" on="1"/>
        <pt x="383" y="160" on="1"/>
        <pt x="893" y="160" on="1"/>
        <pt x="1064" y="160" on="0"/>
        <pt x="1227" y="9" on="0"/>
        <pt x="1227" y="-147" on="1"/>
        <pt x="1227" y="-287" on="1"/>
        <pt x="1047" y="-287" on="1"/>
        <pt x="1047" y="-164" on="1"/>
        <pt x="1047" y="-88" on="0"/>
        <pt x="967" y="0" on="0"/>
        <pt x="881" y="0" on="1"/>
        <pt x="199" y="0" on="1"/>
        <pt x="199" y="1462" on="1"/>
        <pt x="383" y="1462" on="1"/>
      </contour>
    </TTGlyph>
    <TTGlyph name="uni0538" xMin="184" yMin="-287" xMax="1262" yMax="1483">
      <contour>
        <pt x="184" y="946" on="1"/>
        <pt x="184" y="1195" on="0"/>
        <pt x="470" y="1483" on="0"/>
        <pt x="721" y="1483" on="1"/>
        <pt x="979" y="1483" on="0"/>
        <pt x="1262" y="1196" on="0"/>
        <pt x="1262" y="942" on="1"/>
        <pt x="1262" y="922" on="1"/>
        <pt x="1077" y="922" on="1"/>
        <pt x="1077" y="948" on="1"/>
        <pt x="1077" y="1127" on="0"/>
        <pt x="898" y="1323" on="0"/>
        <pt x="719" y="1323" on="1"/>
        <pt x="548" y="1323" on="0"/>
        <pt x="369" y="1128" on="0"/>
        <pt x="369" y="946" on="1"/>
        <pt x="369" y="160" on="1"/>
        <pt x="928" y="160" on="1"/>
        <pt x="1099" y="160" on="0"/>
        <pt x="1262" y="9" on="0"/>
        <pt x="1262" y="-147" on="1"/>
        <pt x="1262" y="-287" on="1"/>
        <pt x="1081" y="-287" on="1"/>
        <pt x="1081" y="-164" on="1"/>
        <pt x="1081" y="0" on="0"/>
        <pt x="915" y="0" on="1"/>
        <pt x="184" y="0" on="1"/>
      </contour>
    </TTGlyph>
    <TTGlyph name="uni0539" xMin="184" yMin="0" xMax="1522" yMax="1483">
      <contour>
        <pt x="1522" y="946" on="1"/>
        <pt x="1522" y="786" on="1"/>
        <pt x="1200" y="786" on="1"/>
        <pt x="1200" y="633" on="1"/>
        <pt x="1200" y="486" on="0"/>
        <pt x="1024" y="317" on="0"/>
        <pt x="870" y="317" on="1"/>
        <pt x="723" y="317" on="0"/>
        <pt x="543" y="487" on="0"/>
        <pt x="543" y="633" on="1"/>
        <pt x="543" y="781" on="0"/>
        <pt x="737" y="946" on="0"/>
        <pt x="913" y="946" on="1"/>
        <pt x="1016" y="946" on="1"/>
        <pt x="1016" y="1125" on="0"/>
        <pt x="854" y="1323" on="0"/>
        <pt x="690" y="1323" on="1"/>
        <pt x="535" y="1323" on="0"/>
        <pt x="369" y="1130" on="0"/>
        <pt x="369" y="946" on="1"/>
        <pt x="369" y="0" on="1"/>
        <pt x="184" y="0" on="1"/>
        <pt x="184" y="946" on="1"/>
        <pt x="184" y="1207" on="0"/>
        <pt x="447" y="1483" on="0"/>
        <pt x="690" y="1483" on="1"/>
        <pt x="933" y="1483" on="0"/>
        <pt x="1200" y="1203" on="0"/>
        <pt x="1200" y="946" on="1"/>
      </contour>
      <contour>
        <pt x="909" y="786" on="1"/>
        <pt x="809" y="786" on="0"/>
        <pt x="727" y="709" on="0"/>
        <pt x="727" y="631" on="1"/>
        <pt x="727" y="553" on="0"/>
        <pt x="795" y="477" on="0"/>
        <pt x="872" y="477" on="1"/>
        <pt x="950" y="477" on="0"/>
        <pt x="1016" y="554" on="0"/>
        <pt x="1016" y="633" on="1"/>
        <pt x="1016" y="786" on="1"/>
      </contour>
    </TTGlyph>
    <TTGlyph name="uni053A" xMin="113" yMin="-20" xMax="1448" yMax="1462">
      <contour>
        <pt x="1100" y="1462" on="1"/>
        <pt x="1100" y="944" on="1"/>
        <pt x="1448" y="944" on="1"/>
        <pt x="1448" y="784" on="1"/>
        <pt x="1100" y="784" on="1"/>
        <pt x="1100" y="520" on="1"/>
        <pt x="1100" y="266" on="0"/>
        <pt x="844" y="-20" on="0"/>
        <pt x="612" y="-20" on="1"/>
        <pt x="382" y="-20" on="0"/>
        <pt x="113" y="237" on="0"/>
        <pt x="113" y="461" on="1"/>
        <pt x="113" y="605" on="0"/>
        <pt x="236" y="825" on="0"/>
        <pt x="469" y="944" on="0"/>
        <pt x="631" y="944" on="1"/>
        <pt x="915" y="944" on="1"/>
        <pt x="915" y="1462" on="1"/>
      </contour>
      <contour>
        <pt x="621" y="784" on="1"/>
        <pt x="466" y="784" on="0"/>
        <pt x="295" y="614" on="0"/>
        <pt x="295" y="461" on="1"/>
        <pt x="295" y="308" on="0"/>
        <pt x="455" y="139" on="0"/>
        <pt x="602" y="139" on="1"/>
        <pt x="756" y="139" on="0"/>
        <pt x="915" y="332" on="0"/>
        <pt x="915" y="514" on="1"/>
        <pt x="915" y="784" on="1"/>
      </contour>
    </TTGlyph>
    <TTGlyph name="uni053B" xMin="201" yMin="0" xMax="1284" yMax="1462">
      <contour>
        <pt x="387" y="791" on="1"/>
        <pt x="461" y="898" on="0"/>
        <pt x="665" y="999" on="0"/>
        <pt x="801" y="999" on="1"/>
        <pt x="1027" y="999" on="0"/>
        <pt x="1284" y="727" on="0"/>
        <pt x="1284" y="485" on="1"/>
        <pt x="1284" y="410" on="1"/>
        <pt x="1100" y="410" on="1"/>
        <pt x="1100" y="471" on="1"/>
        <pt x="1100" y="658" on="0"/>
        <pt x="933" y="840" on="0"/>
        <pt x="766" y="840" on="1"/>
        <pt x="587" y="840" on="0"/>
        <pt x="385" y="631" on="0"/>
        <pt x="385" y="451" on="1"/>
        <pt x="385" y="0" on="1"/>
        <pt x="201" y="0" on="1"/>
        <pt x="201" y="1462" on="1"/>
        <pt x="385" y="1462" on="1"/>
        <pt x="385" y="967" on="1"/>
        <pt x="385" y="941" on="0"/>
        <pt x="375" y="791" on="1"/>
      </contour>
    </TTGlyph>
    <TTGlyph name="uni053C" xMin="199" yMin="-287" xMax="1022" yMax="1462">
      <contour>
        <pt x="383" y="160" on="1"/>
        <pt x="688" y="160" on="1"/>
        <pt x="859" y="160" on="0"/>
        <pt x="1022" y="9" on="0"/>
        <pt x="1022" y="-147" on="1"/>
        <pt x="1022" y="-287" on="1"/>
        <pt x="842" y="-287" on="1"/>
        <pt x="842" y="-164" on="1"/>
        <pt x="842" y="-83" on="0"/>
        <pt x="766" y="0" on="0"/>
        <pt x="676" y="0" on="1"/>
        <pt x="199" y="0" on="1"/>
        <pt x="199" y="1462" on="1"/>
        <pt x="383" y="1462" on="1"/>
      </contour>
    </TTGlyph>
    <TTGlyph name="uni053D" xMin="199" yMin="-20" xMax="1731" yMax="1462">
      <contour>
        <pt x="842" y="938" on="1"/>
        <pt x="383" y="938" on="1"/>
        <pt x="383" y="0" on="1"/>
        <pt x="199" y="0" on="1"/>
        <pt x="199" y="1462" on="1"/>
        <pt x="383" y="1462" on="1"/>
        <pt x="383" y="1098" on="1"/>
        <pt x="1026" y="1098" on="1"/>
        <pt x="1026" y="399" on="1"/>
        <pt x="1026" y="139" on="0"/>
        <pt x="1288" y="139" on="1"/>
        <pt x="1413" y="139" on="0"/>
        <pt x="1546" y="272" on="0"/>
        <pt x="1546" y="399" on="1"/>
        <pt x="1546" y="1098" on="1"/>
        <pt x="1731" y="1098" on="1"/>
        <pt x="1731" y="399" on="1"/>
        <pt x="1731" y="208" on="0"/>
        <pt x="1490" y="-20" on="0"/>
        <pt x="1282" y="-20" on="1"/>
        <pt x="1077" y="-20" on="0"/>
        <pt x="842" y="206" on="0"/>
        <pt x="842" y="403" on="1"/>
      </contour>
    </TTGlyph>
    <TTGlyph name="uni053E" xMin="111" yMin="-20" xMax="1366" yMax="1483">
      <contour>
        <pt x="291" y="1462" on="1"/>
        <pt x="291" y="1442" on="1"/>
        <pt x="291" y="1373" on="0"/>
        <pt x="362" y="1300" on="0"/>
        <pt x="440" y="1284" on="1"/>
        <pt x="555" y="1378" on="0"/>
        <pt x="845" y="1483" on="0"/>
        <pt x="1010" y="1483" on="1"/>
        <pt x="1195" y="1483" on="0"/>
        <pt x="1348" y="1434" on="1"/>
        <pt x="1292" y="1276" on="1"/>
        <pt x="1165" y="1323" on="0"/>
        <pt x="997" y="1323" on="1"/>
        <pt x="827" y="1323" on="0"/>
        <pt x="682" y="1255" on="1"/>
        <pt x="1025" y="1205" on="0"/>
        <pt x="1366" y="876" on="0"/>
        <pt x="1366" y="608" on="1"/>
        <pt x="1366" y="311" on="0"/>
        <pt x="1040" y="-20" on="0"/>
        <pt x="748" y="-20" on="1"/>
        <pt x="452" y="-20" on="0"/>
        <pt x="129" y="316" on="0"/>
        <pt x="129" y="625" on="1"/>
        <pt x="129" y="923" on="0"/>
        <pt x="307" y="1149" on="1"/>
        <pt x="209" y="1181" on="0"/>
        <pt x="111" y="1319" on="0"/>
        <pt x="111" y="1442" on="1"/>
        <pt x="111" y="1462" on="1"/>
      </contour>
      <contour>
        <pt x="524" y="1114" on="1"/>
        <pt x="509" y="1114" on="1"/>
        <pt x="494" y="1116" on="1"/>
        <pt x="324" y="923" on="0"/>
        <pt x="324" y="623" on="1"/>
        <pt x="324" y="389" on="0"/>
        <pt x="539" y="139" on="0"/>
        <pt x="748" y="139" on="1"/>
        <pt x="955" y="139" on="0"/>
        <pt x="1171" y="377" on="0"/>
        <pt x="1171" y="608" on="1"/>
        <pt x="1171" y="844" on="0"/>
        <pt x="859" y="1089" on="0"/>
      </contour>
    </TTGlyph>
    <TTGlyph name="uni053F" xMin="164" yMin="0" xMax="1247" yMax="1462">
      <contour>
        <pt x="1061" y="672" on="1"/>
        <pt x="985" y="562" on="0"/>
        <pt x="775" y="463" on="0"/>
        <pt x="627" y="463" on="1"/>
        <pt x="404" y="463" on="0"/>
        <pt x="164" y="732" on="0"/>
        <pt x="164" y="993" on="1"/>
        <pt x="164" y="1462" on="1"/>
        <pt x="348" y="1462" on="1"/>
        <pt x="348" y="991" on="1"/>
        <pt x="348" y="623" on="0"/>
        <pt x="676" y="623" on="1"/>
        <pt x="859" y="623" on="0"/>
        <pt x="1063" y="831" on="0"/>
        <pt x="1063" y="1012" on="1"/>
        <pt x="1063" y="1098" on="1"/>
        <pt x="1247" y="1098" on="1"/>
        <pt x="1247" y="0" on="1"/>
        <pt x="1063" y="0" on="1"/>
        <pt x="1063" y="496" on="1"/>
        <pt x="1063" y="522" on="0"/>
        <pt x="1073" y="672" on="1"/>
      </contour>
    </TTGlyph>
    <TTGlyph name="uni0540" xMin="53" yMin="-41" xMax="1075" yMax="1503">
      <contour>
        <pt x="524" y="1503" on="1"/>
        <pt x="834" y="1288" on="1"/>
        <pt x="834" y="1159" on="1"/>
        <pt x="246" y="377" on="1"/>
        <pt x="1075" y="123" on="1"/>
        <pt x="1030" y="-41" on="1"/>
        <pt x="53" y="256" on="1"/>
        <pt x="53" y="395" on="1"/>
        <pt x="657" y="1206" on="1"/>
        <pt x="430" y="1362" on="1"/>
      </contour>
    </TTGlyph>
    <TTGlyph name="uni0541" xMin="106" yMin="-53" xMax="1303" yMax="1483">
      <contour>
        <pt x="1157" y="936" on="1"/>
        <pt x="1157" y="592" on="0"/>
        <pt x="979" y="324" on="1"/>
        <pt x="1134" y="221" on="0"/>
        <pt x="1303" y="74" on="1"/>
        <pt x="1190" y="-53" on="1"/>
        <pt x="996" y="111" on="0"/>
        <pt x="874" y="193" on="1"/>
        <pt x="680" y="-20" on="0"/>
        <pt x="428" y="-20" on="1"/>
        <pt x="106" y="-20" on="0"/>
        <pt x="106" y="254" on="1"/>
        <pt x="106" y="331" on="0"/>
        <pt x="190" y="454" on="0"/>
        <pt x="348" y="522" on="0"/>
        <pt x="453" y="522" on="1"/>
        <pt x="621" y="522" on="0"/>
        <pt x="827" y="414" on="1"/>
        <pt x="963" y="637" on="0"/>
        <pt x="963" y="936" on="1"/>
        <pt x="963" y="1126" on="0"/>
        <pt x="790" y="1323" on="0"/>
        <pt x="627" y="1323" on="1"/>
        <pt x="461" y="1323" on="0"/>
        <pt x="299" y="1132" on="0"/>
        <pt x="299" y="952" on="1"/>
        <pt x="299" y="922" on="1"/>
        <pt x="115" y="922" on="1"/>
        <pt x="115" y="942" on="1"/>
        <pt x="115" y="1195" on="0"/>
        <pt x="386" y="1483" on="0"/>
        <pt x="629" y="1483" on="1"/>
        <pt x="794" y="1483" on="0"/>
        <pt x="1033" y="1351" on="0"/>
        <pt x="1157" y="1105" on="0"/>
      </contour>
      <contour>
        <pt x="428" y="131" on="1"/>
        <pt x="603" y="131" on="0"/>
        <pt x="731" y="281" on="1"/>
        <pt x="566" y="371" on="0"/>
        <pt x="453" y="371" on="1"/>
        <pt x="380" y="371" on="0"/>
        <pt x="295" y="307" on="0"/>
        <pt x="295" y="250" on="1"/>
        <pt x="295" y="131" on="0"/>
      </contour>
    </TTGlyph>
    <TTGlyph name="uni0542" xMin="82" yMin="0" xMax="1507" yMax="1483">
      <contour>
        <pt x="975" y="0" on="1"/>
        <pt x="975" y="950" on="1"/>
        <pt x="975" y="1129" on="0"/>
        <pt x="799" y="1323" on="0"/>
        <pt x="627" y="1323" on="1"/>
        <pt x="447" y="1323" on="0"/>
        <pt x="266" y="1128" on="0"/>
        <pt x="266" y="952" on="1"/>
        <pt x="266" y="922" on="1"/>
        <pt x="82" y="922" on="1"/>
        <pt x="82" y="942" on="1"/>
        <pt x="82" y="1197" on="0"/>
        <pt x="370" y="1483" on="0"/>
        <pt x="627" y="1483" on="1"/>
        <pt x="882" y="1483" on="0"/>
        <pt x="1159" y="1202" on="0"/>
        <pt x="1159" y="946" on="1"/>
        <pt x="1159" y="160" on="1"/>
        <pt x="1507" y="160" on="1"/>
        <pt x="1507" y="0" on="1"/>
      </contour>
    </TTGlyph>
    <TTGlyph name="uni0543" xMin="98" yMin="0" xMax="1294" yMax="1505">
      <contour>
        <pt x="1245" y="1362" on="1"/>
        <pt x="951" y="1248" on="0"/>
        <pt x="750" y="1073" on="1"/>
        <pt x="1012" y="907" on="0"/>
        <pt x="1294" y="421" on="0"/>
        <pt x="1294" y="133" on="1"/>
        <pt x="1294" y="0" on="1"/>
        <pt x="98" y="0" on="1"/>
        <pt x="100" y="298" on="0"/>
        <pt x="293" y="820" on="0"/>
        <pt x="479" y="1030" on="1"/>
        <pt x="359" y="1082" on="0"/>
        <pt x="227" y="1118" on="1"/>
        <pt x="274" y="1266" on="1"/>
        <pt x="452" y="1224" on="0"/>
        <pt x="600" y="1153" on="1"/>
        <pt x="843" y="1376" on="0"/>
        <pt x="1178" y="1505" on="1"/>
      </contour>
      <contour>
        <pt x="1110" y="160" on="1"/>
        <pt x="1102" y="413" on="0"/>
        <pt x="858" y="818" on="0"/>
        <pt x="629" y="954" on="1"/>
        <pt x="334" y="628" on="0"/>
        <pt x="283" y="160" on="1"/>
      </contour>
    </TTGlyph>
    <TTGlyph name="uni0544" xMin="184" yMin="-20" xMax="1659" yMax="1462">
      <contour>
        <pt x="1311" y="516" on="1"/>
        <pt x="1311" y="266" on="0"/>
        <pt x="1009" y="-20" on="0"/>
        <pt x="741" y="-20" on="1"/>
        <pt x="476" y="-20" on="0"/>
        <pt x="184" y="269" on="0"/>
        <pt x="184" y="520" on="1"/>
        <pt x="184" y="1462" on="1"/>
        <pt x="369" y="1462" on="1"/>
        <pt x="369" y="514" on="1"/>
        <pt x="369" y="332" on="0"/>
        <pt x="562" y="139" on="0"/>
        <pt x="752" y="139" on="1"/>
        <pt x="933" y="139" on="0"/>
        <pt x="1128" y="333" on="0"/>
        <pt x="1128" y="516" on="1"/>
        <pt x="1128" y="1462" on="1"/>
        <pt x="1659" y="1462" on="1"/>
        <pt x="1659" y="1303" on="1"/>
        <pt x="1311" y="1303" on="1"/>
      </contour>
    </TTGlyph>
    <TTGlyph name="uni0545" xMin="123" yMin="-20" xMax="1094" yMax="1483">
      <contour>
        <pt x="1051" y="1120" on="1"/>
        <pt x="1051" y="982" on="0"/>
        <pt x="877" y="798" on="0"/>
        <pt x="717" y="772" on="1"/>
        <pt x="717" y="764" on="1"/>
        <pt x="903" y="742" on="0"/>
        <pt x="1094" y="561" on="0"/>
        <pt x="1094" y="416" on="1"/>
        <pt x="1094" y="212" on="0"/>
        <pt x="798" y="-20" on="0"/>
        <pt x="526" y="-20" on="1"/>
        <pt x="277" y="-20" on="0"/>
        <pt x="123" y="59" on="1"/>
        <pt x="123" y="236" on="1"/>
        <pt x="210" y="191" on="0"/>
        <pt x="427" y="139" on="0"/>
        <pt x="526" y="139" on="1"/>
        <pt x="897" y="139" on="0"/>
        <pt x="897" y="422" on="1"/>
        <pt x="897" y="680" on="0"/>
        <pt x="500" y="680" on="1"/>
        <pt x="143" y="680" on="1"/>
        <pt x="143" y="840" on="1"/>
        <pt x="500" y="840" on="1"/>
        <pt x="667" y="840" on="0"/>
        <pt x="862" y="982" on="0"/>
        <pt x="862" y="1108" on="1"/>
        <pt x="862" y="1205" on="0"/>
        <pt x="717" y="1323" on="0"/>
        <pt x="588" y="1323" on="1"/>
        <pt x="490" y="1323" on="0"/>
        <pt x="316" y="1265" on="0"/>
        <pt x="221" y="1200" on="1"/>
        <pt x="129" y="1333" on="1"/>
        <pt x="215" y="1403" on="0"/>
        <pt x="450" y="1483" on="0"/>
        <pt x="582" y="1483" on="1"/>
        <pt x="800" y="1483" on="0"/>
        <pt x="1051" y="1284" on="0"/>
      </contour>
    </TTGlyph>
    <TTGlyph name="uni0546" xMin="41" yMin="-20" xMax="1413" yMax="1462">
      <contour>
        <pt x="1413" y="541" on="1"/>
        <pt x="1413" y="516" on="1"/>
        <pt x="1413" y="267" on="0"/>
        <pt x="1140" y="-20" on="0"/>
        <pt x="895" y="-20" on="1"/>
        <pt x="654" y="-20" on="0"/>
        <pt x="389" y="267" on="0"/>
        <pt x="389" y="520" on="1"/>
        <pt x="389" y="1303" on="1"/>
        <pt x="41" y="1303" on="1"/>
        <pt x="41" y="1462" on="1"/>
        <pt x="573" y="1462" on="1"/>
        <pt x="573" y="514" on="1"/>
        <pt x="573" y="332" on="0"/>
        <pt x="742" y="139" on="0"/>
        <pt x="905" y="139" on="1"/>
        <pt x="1061" y="139" on="0"/>
        <pt x="1229" y="333" on="0"/>
        <pt x="1229" y="516" on="1"/>
        <pt x="1229" y="541" on="1"/>
      </contour>
    </TTGlyph>
    <TTGlyph name="uni0547" xMin="119" yMin="-20" xMax="1190" yMax="1483">
      <contour>
        <pt x="958" y="1198" on="1"/>
        <pt x="795" y="1198" on="0"/>
        <pt x="497" y="1031" on="0"/>
        <pt x="313" y="732" on="0"/>
        <pt x="313" y="555" on="1"/>
        <pt x="313" y="349" on="0"/>
        <pt x="483" y="139" on="0"/>
        <pt x="649" y="139" on="1"/>
        <pt x="812" y="139" on="0"/>
        <pt x="979" y="318" on="0"/>
        <pt x="979" y="510" on="1"/>
        <pt x="979" y="541" on="1"/>
        <pt x="1163" y="541" on="1"/>
        <pt x="1163" y="520" on="1"/>
        <pt x="1163" y="269" on="0"/>
        <pt x="893" y="-20" on="0"/>
        <pt x="649" y="-20" on="1"/>
        <pt x="395" y="-20" on="0"/>
        <pt x="119" y="287" on="0"/>
        <pt x="119" y="563" on="1"/>
        <pt x="119" y="787" on="0"/>
        <pt x="381" y="1151" on="0"/>
        <pt x="616" y="1247" on="1"/>
        <pt x="129" y="1323" on="1"/>
        <pt x="154" y="1483" on="1"/>
        <pt x="1190" y="1333" on="1"/>
        <pt x="1163" y="1174" on="1"/>
        <pt x="1024" y="1192" on="1"/>
        <pt x="990" y="1198" on="0"/>
      </contour>
    </TTGlyph>
    <TTGlyph name="uni0548" xMin="184" yMin="0" xMax="1311" yMax="1483">
      <contour>
        <pt x="184" y="0" on="1"/>
        <pt x="184" y="946" on="1"/>
        <pt x="184" y="1197" on="0"/>
        <pt x="487" y="1483" on="0"/>
        <pt x="754" y="1483" on="1"/>
        <pt x="1019" y="1483" on="0"/>
        <pt x="1311" y="1194" on="0"/>
        <pt x="1311" y="942" on="1"/>
        <pt x="1311" y="0" on="1"/>
        <pt x="1126" y="0" on="1"/>
        <pt x="1126" y="948" on="1"/>
        <pt x="1126" y="1127" on="0"/>
        <pt x="935" y="1323" on="0"/>
        <pt x="743" y="1323" on="1"/>
        <pt x="562" y="1323" on="0"/>
        <pt x="367" y="1129" on="0"/>
        <pt x="367" y="946" on="1"/>
        <pt x="367" y="0" on="1"/>
      </contour>
    </TTGlyph>
    <TTGlyph name="uni0549" xMin="88" yMin="-20" xMax="1159" yMax="1483">
      <contour>
        <pt x="319" y="264" on="1"/>
        <pt x="487" y="264" on="0"/>
        <pt x="788" y="439" on="0"/>
        <pt x="965" y="735" on="0"/>
        <pt x="965" y="907" on="1"/>
        <pt x="965" y="1113" on="0"/>
        <pt x="795" y="1323" on="0"/>
        <pt x="629" y="1323" on="1"/>
        <pt x="466" y="1323" on="0"/>
        <pt x="299" y="1144" on="0"/>
        <pt x="299" y="952" on="1"/>
        <pt x="299" y="922" on="1"/>
        <pt x="115" y="922" on="1"/>
        <pt x="115" y="942" on="1"/>
        <pt x="115" y="1195" on="0"/>
        <pt x="386" y="1483" on="0"/>
        <pt x="629" y="1483" on="1"/>
        <pt x="883" y="1483" on="0"/>
        <pt x="1159" y="1178" on="0"/>
        <pt x="1159" y="899" on="1"/>
        <pt x="1159" y="673" on="0"/>
        <pt x="894" y="309" on="0"/>
        <pt x="662" y="215" on="1"/>
        <pt x="1149" y="139" on="1"/>
        <pt x="1124" y="-20" on="1"/>
        <pt x="88" y="129" on="1"/>
        <pt x="115" y="289" on="1"/>
        <pt x="254" y="270" on="1"/>
        <pt x="287" y="264" on="0"/>
      </contour>
    </TTGlyph>
    <TTGlyph name="uni054A" xMin="154" yMin="0" xMax="1575" yMax="1483">
      <contour>
        <pt x="772" y="1323" on="1"/>
        <pt x="560" y="1301" on="0"/>
        <pt x="338" y="1057" on="0"/>
        <pt x="338" y="850" on="1"/>
        <pt x="338" y="567" on="1"/>
        <pt x="154" y="664" on="1"/>
        <pt x="154" y="844" on="1"/>
        <pt x="154" y="1036" on="0"/>
        <pt x="328" y="1327" on="0"/>
        <pt x="654" y="1483" on="0"/>
        <pt x="877" y="1483" on="1"/>
        <pt x="1206" y="1483" on="0"/>
        <pt x="1575" y="1140" on="0"/>
        <pt x="1575" y="840" on="1"/>
        <pt x="1575" y="0" on="1"/>
        <pt x="1391" y="0" on="1"/>
        <pt x="1391" y="852" on="1"/>
        <pt x="1391" y="1059" on="0"/>
        <pt x="1171" y="1299" on="0"/>
        <pt x="956" y="1323" on="1"/>
        <pt x="956" y="250" on="1"/>
        <pt x="772" y="348" on="1"/>
      </contour>
    </TTGlyph>
    <TTGlyph name="uni054B" xMin="98" yMin="-205" xMax="1245" yMax="1483">
      <contour>
        <pt x="123" y="963" on="1"/>
        <pt x="123" y="1203" on="0"/>
        <pt x="411" y="1483" on="0"/>
        <pt x="662" y="1483" on="1"/>
        <pt x="823" y="1483" on="0"/>
        <pt x="1060" y="1351" on="0"/>
        <pt x="1184" y="1107" on="0"/>
        <pt x="1184" y="946" on="1"/>
        <pt x="1184" y="532" on="0"/>
        <pt x="690" y="156" on="1"/>
        <pt x="985" y="156" on="1"/>
        <pt x="1245" y="156" on="0"/>
        <pt x="1245" y="-94" on="1"/>
        <pt x="1245" y="-205" on="1"/>
        <pt x="1061" y="-205" on="1"/>
        <pt x="1061" y="-100" on="1"/>
        <pt x="1061" y="0" on="0"/>
        <pt x="934" y="0" on="1"/>
        <pt x="283" y="0" on="1"/>
        <pt x="283" y="-205" on="1"/>
        <pt x="98" y="-205" on="1"/>
        <pt x="98" y="307" on="1"/>
        <pt x="283" y="307" on="1"/>
        <pt x="283" y="156" on="1"/>
        <pt x="469" y="156" on="1"/>
        <pt x="467" y="286" on="0"/>
        <pt x="397" y="444" on="0"/>
        <pt x="319" y="520" on="1"/>
        <pt x="213" y="619" on="0"/>
        <pt x="123" y="821" on="0"/>
      </contour>
      <contour>
        <pt x="618" y="279" on="1"/>
        <pt x="809" y="448" on="0"/>
        <pt x="989" y="767" on="0"/>
        <pt x="989" y="950" on="1"/>
        <pt x="989" y="1131" on="0"/>
        <pt x="821" y="1323" on="0"/>
        <pt x="662" y="1323" on="1"/>
        <pt x="488" y="1323" on="0"/>
        <pt x="317" y="1134" on="0"/>
        <pt x="317" y="961" on="1"/>
        <pt x="317" y="845" on="0"/>
        <pt x="370" y="711" on="0"/>
        <pt x="457" y="625" on="1"/>
        <pt x="530" y="550" on="0"/>
        <pt x="605" y="398" on="0"/>
      </contour>
    </TTGlyph>
    <TTGlyph name="uni054C" xMin="184" yMin="0" xMax="1659" yMax="1483">
      <contour>
        <pt x="184" y="0" on="1"/>
        <pt x="184" y="946" on="1"/>
        <pt x="184" y="1197" on="0"/>
        <pt x="487" y="1483" on="0"/>
        <pt x="754" y="1483" on="1"/>
        <pt x="1019" y="1483" on="0"/>
        <pt x="1311" y="1194" on="0"/>
        <pt x="1311" y="942" on="1"/>
        <pt x="1311" y="852" on="1"/>
        <pt x="1659" y="852" on="1"/>
        <pt x="1659" y="692" on="1"/>
        <pt x="1311" y="692" on="1"/>
        <pt x="1311" y="0" on="1"/>
        <pt x="1126" y="0" on="1"/>
        <pt x="1126" y="948" on="1"/>
        <pt x="1126" y="1127" on="0"/>
        <pt x="935" y="1323" on="0"/>
        <pt x="743" y="1323" on="1"/>
        <pt x="560" y="1323" on="0"/>
        <pt x="369" y="1127" on="0"/>
        <pt x="369" y="946" on="1"/>
        <pt x="369" y="0" on="1"/>
      </contour>
    </TTGlyph>
    <TTGlyph name="uni054D" xMin="184" yMin="-20" xMax="1311" yMax="1462">
      <contour>
        <pt x="1311" y="1462" on="1"/>
        <pt x="1311" y="516" on="1"/>
        <pt x="1311" y="266" on="0"/>
        <pt x="1009" y="-20" on="0"/>
        <pt x="741" y="-20" on="1"/>
        <pt x="476" y="-20" on="0"/>
        <pt x="184" y="269" on="0"/>
        <pt x="184" y="520" on="1"/>
        <pt x="184" y="1462" on="1"/>
        <pt x="369" y="1462" on="1"/>
        <pt x="369" y="514" on="1"/>
        <pt x="369" y="332" on="0"/>
        <pt x="562" y="139" on="0"/>
        <pt x="752" y="139" on="1"/>
        <pt x="933" y="139" on="0"/>
        <pt x="1128" y="333" on="0"/>
        <pt x="1128" y="516" on="1"/>
        <pt x="1128" y="1462" on="1"/>
      </contour>
    </TTGlyph>
    <TTGlyph name="uni054E" xMin="82" yMin="0" xMax="1507" yMax="1462">
      <contour>
        <pt x="1507" y="160" on="1"/>
        <pt x="1507" y="0" on="1"/>
        <pt x="975" y="0" on="1"/>
        <pt x="975" y="496" on="1"/>
        <pt x="975" y="522" on="0"/>
        <pt x="985" y="672" on="1"/>
        <pt x="973" y="672" on="1"/>
        <pt x="897" y="561" on="0"/>
        <pt x="700" y="463" on="0"/>
        <pt x="565" y="463" on="1"/>
        <pt x="330" y="463" on="0"/>
        <pt x="82" y="733" on="0"/>
        <pt x="82" y="993" on="1"/>
        <pt x="82" y="1053" on="1"/>
        <pt x="266" y="1053" on="1"/>
        <pt x="266" y="991" on="1"/>
        <pt x="266" y="623" on="0"/>
        <pt x="580" y="623" on="1"/>
        <pt x="767" y="623" on="0"/>
        <pt x="975" y="829" on="0"/>
        <pt x="975" y="1012" on="1"/>
        <pt x="975" y="1462" on="1"/>
        <pt x="1159" y="1462" on="1"/>
        <pt x="1159" y="160" on="1"/>
      </contour>
    </TTGlyph>
    <TTGlyph name="uni054F" xMin="104" yMin="-20" xMax="1028" yMax="1483">
      <contour>
        <pt x="1028" y="391" on="1"/>
        <pt x="1028" y="200" on="0"/>
        <pt x="752" y="-20" on="0"/>
        <pt x="506" y="-20" on="1"/>
        <pt x="246" y="-20" on="0"/>
        <pt x="104" y="49" on="1"/>
        <pt x="104" y="225" on="1"/>
        <pt x="197" y="185" on="0"/>
        <pt x="417" y="139" on="0"/>
        <pt x="514" y="139" on="1"/>
        <pt x="678" y="139" on="0"/>
        <pt x="844" y="265" on="0"/>
        <pt x="844" y="375" on="1"/>
        <pt x="844" y="448" on="0"/>
        <pt x="784" y="542" on="0"/>
        <pt x="643" y="624" on="0"/>
        <pt x="500" y="676" on="1"/>
        <pt x="295" y="750" on="0"/>
        <pt x="123" y="954" on="0"/>
        <pt x="123" y="1110" on="1"/>
        <pt x="123" y="1281" on="0"/>
        <pt x="380" y="1483" on="0"/>
        <pt x="590" y="1483" on="1"/>
        <pt x="809" y="1483" on="0"/>
        <pt x="993" y="1401" on="1"/>
        <pt x="936" y="1243" on="1"/>
        <pt x="748" y="1321" on="0"/>
        <pt x="586" y="1321" on="1"/>
        <pt x="456" y="1321" on="0"/>
        <pt x="309" y="1209" on="0"/>
        <pt x="309" y="1108" on="1"/>
        <pt x="309" y="1036" on="0"/>
        <pt x="366" y="941" on="0"/>
        <pt x="493" y="863" on="0"/>
        <pt x="629" y="813" on="1"/>
        <pt x="792" y="753" on="0"/>
        <pt x="952" y="640" on="0"/>
        <pt x="1028" y="493" on="0"/>
      </contour>
    </TTGlyph>
    <TTGlyph name="uni0550" xMin="184" yMin="0" xMax="1262" yMax="1483">
      <contour>
        <pt x="369" y="0" on="1"/>
        <pt x="184" y="0" on="1"/>
        <pt x="184" y="946" on="1"/>
        <pt x="184" y="1198" on="0"/>
        <pt x="464" y="1483" on="0"/>
        <pt x="721" y="1483" on="1"/>
        <pt x="979" y="1483" on="0"/>
        <pt x="1262" y="1196" on="0"/>
        <pt x="1262" y="942" on="1"/>
        <pt x="1262" y="922" on="1"/>
        <pt x="1077" y="922" on="1"/>
        <pt x="1077" y="936" on="1"/>
        <pt x="1077" y="1122" on="0"/>
        <pt x="892" y="1323" on="0"/>
        <pt x="719" y="1323" on="1"/>
        <pt x="369" y="1323" on="0"/>
        <pt x="369" y="946" on="1"/>
      </contour>
    </TTGlyph>
    <TTGlyph name="uni0551" xMin="115" yMin="-20" xMax="1120" yMax="1483">
      <contour>
        <pt x="348" y="776" on="1"/>
        <pt x="129" y="853" on="0"/>
        <pt x="129" y="1100" on="1"/>
        <pt x="129" y="1211" on="0"/>
        <pt x="242" y="1387" on="0"/>
        <pt x="454" y="1483" on="0"/>
        <pt x="594" y="1483" on="1"/>
        <pt x="740" y="1483" on="0"/>
        <pt x="960" y="1387" on="0"/>
        <pt x="1077" y="1211" on="0"/>
        <pt x="1077" y="1100" on="1"/>
        <pt x="1077" y="969" on="0"/>
        <pt x="951" y="811" on="0"/>
        <pt x="827" y="776" on="1"/>
        <pt x="827" y="768" on="1"/>
        <pt x="1120" y="695" on="0"/>
        <pt x="1120" y="403" on="1"/>
        <pt x="1120" y="205" on="0"/>
        <pt x="820" y="-20" on="0"/>
        <pt x="553" y="-20" on="1"/>
        <pt x="304" y="-20" on="0"/>
        <pt x="150" y="59" on="1"/>
        <pt x="150" y="236" on="1"/>
        <pt x="237" y="191" on="0"/>
        <pt x="455" y="139" on="0"/>
        <pt x="553" y="139" on="1"/>
        <pt x="748" y="139" on="0"/>
        <pt x="924" y="281" on="0"/>
        <pt x="924" y="416" on="1"/>
        <pt x="924" y="535" on="0"/>
        <pt x="737" y="672" on="0"/>
        <pt x="573" y="672" on="1"/>
        <pt x="473" y="672" on="0"/>
        <pt x="297" y="612" on="0"/>
        <pt x="207" y="549" on="1"/>
        <pt x="115" y="682" on="1"/>
        <pt x="203" y="737" on="0"/>
        <pt x="348" y="768" on="1"/>
      </contour>
      <contour>
        <pt x="319" y="1081" on="1"/>
        <pt x="319" y="965" on="0"/>
        <pt x="468" y="831" on="0"/>
        <pt x="602" y="831" on="1"/>
        <pt x="732" y="831" on="0"/>
        <pt x="887" y="967" on="0"/>
        <pt x="887" y="1081" on="1"/>
        <pt x="887" y="1198" on="0"/>
        <pt x="732" y="1331" on="0"/>
        <pt x="596" y="1331" on="1"/>
        <pt x="470" y="1331" on="0"/>
        <pt x="319" y="1200" on="0"/>
      </contour>
    </TTGlyph>
    <TTGlyph name="uni0552" xMin="174" yMin="0" xMax="1102" yMax="1462">
      <contour>
        <pt x="358" y="1016" on="1"/>
        <pt x="520" y="1016" on="1"/>
        <pt x="846" y="1016" on="0"/>
        <pt x="846" y="676" on="1"/>
        <pt x="846" y="594" on="0"/>
        <pt x="876" y="504" on="0"/>
        <pt x="943" y="465" on="0"/>
        <pt x="1020" y="465" on="1"/>
        <pt x="1102" y="465" on="1"/>
        <pt x="1102" y="305" on="1"/>
        <pt x="987" y="305" on="1"/>
        <pt x="833" y="305" on="0"/>
        <pt x="662" y="483" on="0"/>
        <pt x="662" y="643" on="1"/>
        <pt x="662" y="726" on="0"/>
        <pt x="633" y="817" on="0"/>
        <pt x="568" y="856" on="0"/>
        <pt x="492" y="856" on="1"/>
        <pt x="358" y="856" on="1"/>
        <pt x="358" y="0" on="1"/>
        <pt x="174" y="0" on="1"/>
        <pt x="174" y="1462" on="1"/>
        <pt x="358" y="1462" on="1"/>
      </contour>
    </TTGlyph>
    <TTGlyph name="uni0553" xMin="104" yMin="-20" xMax="1540" yMax="1483">
      <contour>
        <pt x="731" y="1483" on="1"/>
        <pt x="913" y="1483" on="1"/>
        <pt x="913" y="1303" on="1"/>
        <pt x="981" y="1303" on="1"/>
        <pt x="1155" y="1303" on="0"/>
        <pt x="1408" y="1164" on="0"/>
        <pt x="1540" y="916" on="0"/>
        <pt x="1540" y="758" on="1"/>
        <pt x="1540" y="593" on="0"/>
        <pt x="1392" y="335" on="0"/>
        <pt x="1130" y="205" on="0"/>
        <pt x="952" y="205" on="1"/>
        <pt x="913" y="205" on="1"/>
        <pt x="913" y="-20" on="1"/>
        <pt x="731" y="-20" on="1"/>
        <pt x="731" y="205" on="1"/>
        <pt x="688" y="205" on="1"/>
        <pt x="510" y="205" on="0"/>
        <pt x="249" y="338" on="0"/>
        <pt x="104" y="599" on="0"/>
        <pt x="104" y="758" on="1"/>
        <pt x="104" y="913" on="0"/>
        <pt x="240" y="1162" on="0"/>
        <pt x="494" y="1303" on="0"/>
        <pt x="666" y="1303" on="1"/>
        <pt x="731" y="1303" on="1"/>
      </contour>
      <contour>
        <pt x="913" y="356" on="1"/>
        <pt x="938" y="356" on="1"/>
        <pt x="1135" y="356" on="0"/>
        <pt x="1354" y="571" on="0"/>
        <pt x="1354" y="760" on="1"/>
        <pt x="1354" y="940" on="0"/>
        <pt x="1151" y="1147" on="0"/>
        <pt x="969" y="1147" on="1"/>
        <pt x="913" y="1147" on="1"/>
      </contour>
      <contour>
        <pt x="731" y="1147" on="1"/>
        <pt x="676" y="1147" on="1"/>
        <pt x="495" y="1147" on="0"/>
        <pt x="291" y="938" on="0"/>
        <pt x="291" y="760" on="1"/>
        <pt x="291" y="571" on="0"/>
        <pt x="509" y="356" on="0"/>
        <pt x="709" y="356" on="1"/>
        <pt x="731" y="356" on="1"/>
      </contour>
    </TTGlyph>
    <TTGlyph name="uni0554" xMin="72" yMin="0" xMax="1452" yMax="1483">
      <contour>
        <pt x="625" y="358" on="1"/>
        <pt x="625" y="0" on="1"/>
        <pt x="440" y="0" on="1"/>
        <pt x="440" y="358" on="1"/>
        <pt x="383" y="358" on="1"/>
        <pt x="235" y="358" on="0"/>
        <pt x="72" y="528" on="0"/>
        <pt x="72" y="684" on="1"/>
        <pt x="252" y="684" on="1"/>
        <pt x="252" y="597" on="0"/>
        <pt x="322" y="518" on="0"/>
        <pt x="403" y="518" on="1"/>
        <pt x="440" y="518" on="1"/>
        <pt x="440" y="946" on="1"/>
        <pt x="440" y="1197" on="0"/>
        <pt x="681" y="1483" on="0"/>
        <pt x="891" y="1483" on="1"/>
        <pt x="1105" y="1483" on="0"/>
        <pt x="1339" y="1266" on="0"/>
        <pt x="1339" y="1073" on="1"/>
        <pt x="1339" y="882" on="0"/>
        <pt x="1103" y="676" on="0"/>
        <pt x="889" y="676" on="1"/>
        <pt x="625" y="676" on="1"/>
        <pt x="625" y="518" on="1"/>
        <pt x="1141" y="518" on="1"/>
        <pt x="1287" y="518" on="0"/>
        <pt x="1452" y="344" on="0"/>
        <pt x="1452" y="186" on="1"/>
        <pt x="1272" y="186" on="1"/>
        <pt x="1272" y="278" on="0"/>
        <pt x="1191" y="358" on="0"/>
        <pt x="1096" y="358" on="1"/>
      </contour>
      <contour>
        <pt x="625" y="836" on="1"/>
        <pt x="870" y="836" on="1"/>
        <pt x="1011" y="836" on="0"/>
        <pt x="1145" y="952" on="0"/>
        <pt x="1145" y="1073" on="1"/>
        <pt x="1145" y="1323" on="0"/>
        <pt x="883" y="1323" on="1"/>
        <pt x="759" y="1323" on="0"/>
        <pt x="625" y="1125" on="0"/>
        <pt x="625" y="950" on="1"/>
      </contour>
    </TTGlyph>
    <TTGlyph name="uni0555" xMin="125" yMin="-20" xMax="1475" yMax="1485">
      <contour>
        <pt x="1475" y="733" on="1"/>
        <pt x="1475" y="382" on="0"/>
        <pt x="1120" y="-20" on="0"/>
        <pt x="801" y="-20" on="1"/>
        <pt x="478" y="-20" on="0"/>
        <pt x="125" y="375" on="0"/>
        <pt x="125" y="735" on="1"/>
        <pt x="125" y="1092" on="0"/>
        <pt x="476" y="1485" on="0"/>
        <pt x="803" y="1485" on="1"/>
        <pt x="1121" y="1485" on="0"/>
        <pt x="1475" y="1086" on="0"/>
      </contour>
      <contour>
        <pt x="319" y="733" on="1"/>
        <pt x="319" y="443" on="0"/>
        <pt x="565" y="139" on="0"/>
        <pt x="801" y="139" on="1"/>
        <pt x="1036" y="139" on="0"/>
        <pt x="1280" y="439" on="0"/>
        <pt x="1280" y="733" on="1"/>
        <pt x="1280" y="1026" on="0"/>
        <pt x="1038" y="1323" on="0"/>
        <pt x="803" y="1323" on="1"/>
        <pt x="565" y="1323" on="0"/>
        <pt x="319" y="1022" on="0"/>
      </contour>
    </TTGlyph>
    <TTGlyph name="uni0556" xMin="92" yMin="-20" xMax="1243" yMax="1462">
      <contour>
        <pt x="1243" y="395" on="1"/>
        <pt x="1243" y="268" on="0"/>
        <pt x="1102" y="80" on="0"/>
        <pt x="832" y="-20" on="0"/>
        <pt x="639" y="-20" on="1"/>
        <pt x="302" y="-20" on="0"/>
        <pt x="92" y="59" on="1"/>
        <pt x="92" y="238" on="1"/>
        <pt x="245" y="187" on="0"/>
        <pt x="462" y="143" on="0"/>
        <pt x="559" y="139" on="1"/>
        <pt x="559" y="676" on="1"/>
        <pt x="94" y="733" on="0"/>
        <pt x="94" y="1106" on="1"/>
        <pt x="94" y="1271" on="0"/>
        <pt x="342" y="1462" on="0"/>
        <pt x="559" y="1462" on="1"/>
        <pt x="743" y="1462" on="1"/>
        <pt x="743" y="827" on="1"/>
        <pt x="996" y="793" on="0"/>
        <pt x="1243" y="582" on="0"/>
      </contour>
      <contour>
        <pt x="1059" y="379" on="1"/>
        <pt x="1059" y="505" on="0"/>
        <pt x="903" y="632" on="0"/>
        <pt x="743" y="655" on="1"/>
        <pt x="743" y="139" on="1"/>
        <pt x="903" y="152" on="0"/>
        <pt x="1059" y="282" on="0"/>
      </contour>
      <contour>
        <pt x="279" y="1102" on="1"/>
        <pt x="279" y="1017" on="0"/>
        <pt x="334" y="924" on="0"/>
        <pt x="454" y="865" on="0"/>
        <pt x="559" y="848" on="1"/>
        <pt x="559" y="1303" on="1"/>
        <pt x="419" y="1303" on="0"/>
        <pt x="279" y="1205" on="0"/>
      </contour>
    </TTGlyph>
    <TTGlyph name="uni0559" xMin="74" yMin="817" xMax="367" yMax="1485">
      <contour>
        <pt x="360" y="817" on="1"/>
        <pt x="231" y="817" on="0"/>
        <pt x="74" y="987" on="0"/>
        <pt x="74" y="1124" on="1"/>
        <pt x="74" y="1248" on="0"/>
        <pt x="180" y="1413" on="0"/>
        <pt x="311" y="1485" on="1"/>
        <pt x="367" y="1403" on="1"/>
        <pt x="310" y="1371" on="0"/>
        <pt x="233" y="1249" on="0"/>
        <pt x="233" y="1161" on="1"/>
        <pt x="233" y="1091" on="0"/>
        <pt x="306" y="1001" on="0"/>
        <pt x="360" y="1001" on="1"/>
      </contour>
    </TTGlyph>
    <TTGlyph name="uni055A" xMin="74" yMin="817" xMax="367" yMax="1485">
      <contour>
        <pt x="80" y="1485" on="1"/>
        <pt x="210" y="1485" on="0"/>
        <pt x="367" y="1312" on="0"/>
        <pt x="367" y="1178" on="1"/>
        <pt x="367" y="1052" on="0"/>
        <pt x="258" y="889" on="0"/>
        <pt x="129" y="817" on="1"/>
        <pt x="74" y="899" on="1"/>
        <pt x="131" y="931" on="0"/>
        <pt x="207" y="1053" on="0"/>
        <pt x="207" y="1141" on="1"/>
        <pt x="207" y="1211" on="0"/>
        <pt x="135" y="1300" on="0"/>
        <pt x="80" y="1300" on="1"/>
      </contour>
    </TTGlyph>
    <TTGlyph name="uni055B" xMin="80" yMin="944" xMax="389" yMax="1462">
      <contour>
        <pt x="371" y="1462" on="1"/>
        <pt x="389" y="1432" on="1"/>
        <pt x="333" y="1225" on="0"/>
        <pt x="211" y="944" on="1"/>
        <pt x="80" y="944" on="1"/>
        <pt x="111" y="1062" on="0"/>
        <pt x="172" y="1374" on="0"/>
        <pt x="184" y="1462" on="1"/>
      </contour>
    </TTGlyph>
    <TTGlyph name="uni055C" xMin="53" yMin="887" xMax="557" yMax="1462">
      <contour>
        <pt x="53" y="1014" on="1"/>
        <pt x="53" y="1065" on="0"/>
        <pt x="127" y="1160" on="0"/>
        <pt x="238" y="1231" on="1"/>
        <pt x="323" y="1288" on="0"/>
        <pt x="373" y="1347" on="0"/>
        <pt x="373" y="1376" on="1"/>
        <pt x="373" y="1407" on="0"/>
        <pt x="365" y="1462" on="1"/>
        <pt x="510" y="1462" on="1"/>
        <pt x="532" y="1439" on="0"/>
        <pt x="557" y="1367" on="0"/>
        <pt x="557" y="1333" on="1"/>
        <pt x="557" y="1278" on="0"/>
        <pt x="480" y="1178" on="0"/>
        <pt x="369" y="1110" on="1"/>
        <pt x="293" y="1063" on="0"/>
        <pt x="238" y="1003" on="0"/>
        <pt x="238" y="973" on="1"/>
        <pt x="238" y="938" on="0"/>
        <pt x="246" y="887" on="1"/>
        <pt x="100" y="887" on="1"/>
        <pt x="79" y="910" on="0"/>
        <pt x="53" y="982" on="0"/>
      </contour>
    </TTGlyph>
    <TTGlyph name="uni055D" xMin="82" yMin="944" xMax="391" yMax="1462">
      <contour>
        <pt x="287" y="1462" on="1"/>
        <pt x="300" y="1365" on="0"/>
        <pt x="360" y="1062" on="0"/>
        <pt x="391" y="944" on="1"/>
        <pt x="260" y="944" on="1"/>
        <pt x="138" y="1225" on="0"/>
        <pt x="82" y="1432" on="1"/>
        <pt x="100" y="1462" on="1"/>
      </contour>
    </TTGlyph>
    <TTGlyph name="uni055E" xMin="47" yMin="881" xMax="694" yMax="1556">
      <contour>
        <pt x="436" y="1044" on="1"/>
        <pt x="355" y="1044" on="0"/>
        <pt x="299" y="1073" on="1"/>
        <pt x="338" y="1214" on="1"/>
        <pt x="387" y="1192" on="0"/>
        <pt x="432" y="1192" on="1"/>
        <pt x="476" y="1192" on="0"/>
        <pt x="526" y="1249" on="0"/>
        <pt x="526" y="1303" on="1"/>
        <pt x="526" y="1354" on="0"/>
        <pt x="471" y="1409" on="0"/>
        <pt x="426" y="1409" on="1"/>
        <pt x="373" y="1409" on="0"/>
        <pt x="310" y="1356" on="0"/>
        <pt x="263" y="1239" on="0"/>
        <pt x="223" y="1040" on="0"/>
        <pt x="205" y="881" on="1"/>
        <pt x="47" y="903" on="1"/>
        <pt x="79" y="1154" on="0"/>
        <pt x="167" y="1432" on="0"/>
        <pt x="304" y="1556" on="0"/>
        <pt x="424" y="1556" on="1"/>
        <pt x="550" y="1556" on="0"/>
        <pt x="694" y="1421" on="0"/>
        <pt x="694" y="1300" on="1"/>
        <pt x="694" y="1183" on="0"/>
        <pt x="553" y="1044" on="0"/>
      </contour>
    </TTGlyph>
    <TTGlyph name="uni055F" xMin="70" yMin="1079" xMax="786" yMax="1550">
      <contour>
        <pt x="238" y="1321" on="1"/>
        <pt x="238" y="1266" on="0"/>
        <pt x="302" y="1227" on="0"/>
        <pt x="360" y="1227" on="1"/>
        <pt x="786" y="1227" on="1"/>
        <pt x="786" y="1079" on="1"/>
        <pt x="342" y="1079" on="1"/>
        <pt x="70" y="1079" on="0"/>
        <pt x="70" y="1319" on="1"/>
        <pt x="70" y="1423" on="0"/>
        <pt x="218" y="1550" on="0"/>
        <pt x="346" y="1550" on="1"/>
        <pt x="420" y="1550" on="0"/>
        <pt x="510" y="1518" on="1"/>
        <pt x="467" y="1374" on="1"/>
        <pt x="401" y="1403" on="0"/>
        <pt x="354" y="1403" on="1"/>
        <pt x="295" y="1403" on="0"/>
        <pt x="238" y="1356" on="0"/>
      </contour>
    </TTGlyph>
    <TTGlyph name="uni0561" xMin="166" yMin="-20" xMax="1741" yMax="1098">
      <contour>
        <pt x="344" y="1098" on="1"/>
        <pt x="344" y="391" on="1"/>
        <pt x="344" y="131" on="0"/>
        <pt x="567" y="131" on="1"/>
        <pt x="720" y="131" on="0"/>
        <pt x="864" y="309" on="0"/>
        <pt x="864" y="492" on="1"/>
        <pt x="864" y="1098" on="1"/>
        <pt x="1042" y="1098" on="1"/>
        <pt x="1042" y="391" on="1"/>
        <pt x="1042" y="261" on="0"/>
        <pt x="1152" y="131" on="0"/>
        <pt x="1268" y="131" on="1"/>
        <pt x="1420" y="131" on="0"/>
        <pt x="1561" y="318" on="0"/>
        <pt x="1561" y="528" on="1"/>
        <pt x="1561" y="1098" on="1"/>
        <pt x="1741" y="1098" on="1"/>
        <pt x="1741" y="0" on="1"/>
        <pt x="1595" y="0" on="1"/>
        <pt x="1569" y="150" on="1"/>
        <pt x="1559" y="150" on="1"/>
        <pt x="1512" y="70" on="0"/>
        <pt x="1341" y="-20" on="0"/>
        <pt x="1235" y="-20" on="1"/>
        <pt x="977" y="-20" on="0"/>
        <pt x="899" y="164" on="1"/>
        <pt x="889" y="164" on="1"/>
        <pt x="836" y="76" on="0"/>
        <pt x="653" y="-20" on="0"/>
        <pt x="537" y="-20" on="1"/>
        <pt x="351" y="-20" on="0"/>
        <pt x="166" y="171" on="0"/>
        <pt x="166" y="383" on="1"/>
        <pt x="166" y="1098" on="1"/>
      </contour>
    </TTGlyph>
    <TTGlyph name="uni0562" xMin="174" yMin="-492" xMax="1100" yMax="1118">
      <contour>
        <pt x="1100" y="152" on="1"/>
        <pt x="1100" y="0" on="1"/>
        <pt x="356" y="0" on="1"/>
        <pt x="354" y="-492" on="1"/>
        <pt x="174" y="-492" on="1"/>
        <pt x="174" y="1098" on="1"/>
        <pt x="319" y="1098" on="1"/>
        <pt x="346" y="948" on="1"/>
        <pt x="356" y="948" on="1"/>
        <pt x="407" y="1029" on="0"/>
        <pt x="591" y="1118" on="0"/>
        <pt x="702" y="1118" on="1"/>
        <pt x="904" y="1118" on="0"/>
        <pt x="1100" y="922" on="0"/>
        <pt x="1100" y="715" on="1"/>
        <pt x="1100" y="410" on="1"/>
        <pt x="922" y="410" on="1"/>
        <pt x="922" y="702" on="1"/>
        <pt x="922" y="836" on="0"/>
        <pt x="803" y="967" on="0"/>
        <pt x="676" y="967" on="1"/>
        <pt x="507" y="967" on="0"/>
        <pt x="354" y="780" on="0"/>
        <pt x="354" y="569" on="1"/>
        <pt x="354" y="152" on="1"/>
      </contour>
    </TTGlyph>
    <TTGlyph name="uni0563" xMin="113" yMin="-492" xMax="1321" yMax="1118">
      <contour>
        <pt x="592" y="0" on="1"/>
        <pt x="357" y="0" on="0"/>
        <pt x="113" y="287" on="0"/>
        <pt x="113" y="557" on="1"/>
        <pt x="113" y="823" on="0"/>
        <pt x="350" y="1118" on="0"/>
        <pt x="565" y="1118" on="1"/>
        <pt x="790" y="1118" on="0"/>
        <pt x="907" y="948" on="1"/>
        <pt x="915" y="948" on="1"/>
        <pt x="942" y="1098" on="1"/>
        <pt x="1085" y="1098" on="1"/>
        <pt x="1085" y="152" on="1"/>
        <pt x="1321" y="152" on="1"/>
        <pt x="1321" y="0" on="1"/>
        <pt x="1085" y="0" on="1"/>
        <pt x="1085" y="-492" on="1"/>
        <pt x="905" y="-492" on="1"/>
        <pt x="905" y="0" on="1"/>
      </contour>
      <contour>
        <pt x="905" y="152" on="1"/>
        <pt x="905" y="545" on="1"/>
        <pt x="905" y="770" on="0"/>
        <pt x="756" y="969" on="0"/>
        <pt x="590" y="969" on="1"/>
        <pt x="448" y="969" on="0"/>
        <pt x="299" y="755" on="0"/>
        <pt x="299" y="553" on="1"/>
        <pt x="299" y="358" on="0"/>
        <pt x="448" y="152" on="0"/>
        <pt x="614" y="152" on="1"/>
      </contour>
    </TTGlyph>
    <TTGlyph name="uni0564" xMin="174" yMin="-492" xMax="1335" yMax="1118">
      <contour>
        <pt x="922" y="-492" on="1"/>
        <pt x="922" y="702" on="1"/>
        <pt x="922" y="836" on="0"/>
        <pt x="803" y="967" on="0"/>
        <pt x="676" y="967" on="1"/>
        <pt x="507" y="967" on="0"/>
        <pt x="354" y="780" on="0"/>
        <pt x="354" y="569" on="1"/>
        <pt x="354" y="0" on="1"/>
        <pt x="174" y="0" on="1"/>
        <pt x="174" y="1098" on="1"/>
        <pt x="319" y="1098" on="1"/>
        <pt x="346" y="948" on="1"/>
        <pt x="356" y="948" on="1"/>
        <pt x="407" y="1029" on="0"/>
        <pt x="591" y="1118" on="0"/>
        <pt x="702" y="1118" on="1"/>
        <pt x="904" y="1118" on="0"/>
        <pt x="1100" y="922" on="0"/>
        <pt x="1100" y="715" on="1"/>
        <pt x="1100" y="152" on="1"/>
        <pt x="1335" y="152" on="1"/>
        <pt x="1335" y="0" on="1"/>
        <pt x="1100" y="0" on="1"/>
        <pt x="1100" y="-492" on="1"/>
      </contour>
    </TTGlyph>
    <TTGlyph name="uni0565" xMin="162" yMin="-20" xMax="1106" yMax="1556">
      <contour>
        <pt x="344" y="1556" on="1"/>
        <pt x="344" y="1098" on="1"/>
        <pt x="1106" y="1098" on="1"/>
        <pt x="1106" y="946" on="1"/>
        <pt x="344" y="946" on="1"/>
        <pt x="344" y="391" on="1"/>
        <pt x="344" y="258" on="0"/>
        <pt x="463" y="129" on="0"/>
        <pt x="588" y="129" on="1"/>
        <pt x="757" y="129" on="0"/>
        <pt x="911" y="317" on="0"/>
        <pt x="911" y="526" on="1"/>
        <pt x="911" y="688" on="1"/>
        <pt x="1092" y="688" on="1"/>
        <pt x="1092" y="0" on="1"/>
        <pt x="944" y="0" on="1"/>
        <pt x="918" y="145" on="1"/>
        <pt x="909" y="145" on="1"/>
        <pt x="860" y="66" on="0"/>
        <pt x="680" y="-20" on="0"/>
        <pt x="561" y="-20" on="1"/>
        <pt x="363" y="-20" on="0"/>
        <pt x="162" y="170" on="0"/>
        <pt x="162" y="379" on="1"/>
        <pt x="162" y="1556" on="1"/>
      </contour>
    </TTGlyph>
    <TTGlyph name="uni0566" xMin="113" yMin="-492" xMax="1321" yMax="1118">
      <contour>
        <pt x="594" y="129" on="1"/>
        <pt x="760" y="129" on="0"/>
        <pt x="903" y="313" on="0"/>
        <pt x="905" y="508" on="1"/>
        <pt x="905" y="545" on="1"/>
        <pt x="905" y="770" on="0"/>
        <pt x="756" y="969" on="0"/>
        <pt x="590" y="969" on="1"/>
        <pt x="449" y="969" on="0"/>
        <pt x="299" y="747" on="0"/>
        <pt x="299" y="543" on="1"/>
        <pt x="299" y="342" on="0"/>
        <pt x="448" y="129" on="0"/>
      </contour>
      <contour>
        <pt x="1321" y="-340" on="1"/>
        <pt x="1321" y="-492" on="1"/>
        <pt x="905" y="-492" on="1"/>
        <pt x="905" y="-23" on="1"/>
        <pt x="905" y="87" on="0"/>
        <pt x="915" y="147" on="1"/>
        <pt x="903" y="147" on="1"/>
        <pt x="788" y="-20" on="0"/>
        <pt x="559" y="-20" on="1"/>
        <pt x="347" y="-20" on="0"/>
        <pt x="113" y="280" on="0"/>
        <pt x="113" y="547" on="1"/>
        <pt x="113" y="815" on="0"/>
        <pt x="352" y="1118" on="0"/>
        <pt x="565" y="1118" on="1"/>
        <pt x="790" y="1118" on="0"/>
        <pt x="907" y="948" on="1"/>
        <pt x="915" y="948" on="1"/>
        <pt x="942" y="1098" on="1"/>
        <pt x="1085" y="1098" on="1"/>
        <pt x="1085" y="-340" on="1"/>
      </contour>
    </TTGlyph>
    <TTGlyph name="uni0567" xMin="174" yMin="-262" xMax="940" yMax="1556">
      <contour>
        <pt x="174" y="1556" on="1"/>
        <pt x="354" y="1556" on="1"/>
        <pt x="354" y="1098" on="1"/>
        <pt x="920" y="1098" on="1"/>
        <pt x="920" y="946" on="1"/>
        <pt x="354" y="946" on="1"/>
        <pt x="354" y="152" on="1"/>
        <pt x="635" y="152" on="1"/>
        <pt x="940" y="152" on="0"/>
        <pt x="940" y="-170" on="1"/>
        <pt x="940" y="-262" on="1"/>
        <pt x="760" y="-262" on="1"/>
        <pt x="760" y="-190" on="1"/>
        <pt x="760" y="-85" on="0"/>
        <pt x="679" y="0" on="0"/>
        <pt x="580" y="0" on="1"/>
        <pt x="174" y="0" on="1"/>
      </contour>
    </TTGlyph>
    <TTGlyph name="uni0568" xMin="174" yMin="-492" xMax="1100" yMax="1118">
      <contour>
        <pt x="1100" y="-340" on="1"/>
        <pt x="1100" y="-492" on="1"/>
        <pt x="174" y="-492" on="1"/>
        <pt x="174" y="1098" on="1"/>
        <pt x="319" y="1098" on="1"/>
        <pt x="346" y="948" on="1"/>
        <pt x="356" y="948" on="1"/>
        <pt x="407" y="1029" on="0"/>
        <pt x="591" y="1118" on="0"/>
        <pt x="702" y="1118" on="1"/>
        <pt x="904" y="1118" on="0"/>
        <pt x="1100" y="922" on="0"/>
        <pt x="1100" y="715" on="1"/>
        <pt x="1100" y="0" on="1"/>
        <pt x="922" y="0" on="1"/>
        <pt x="922" y="702" on="1"/>
        <pt x="922" y="836" on="0"/>
        <pt x="803" y="967" on="0"/>
        <pt x="676" y="967" on="1"/>
        <pt x="507" y="967" on="0"/>
        <pt x="354" y="780" on="0"/>
        <pt x="354" y="569" on="1"/>
        <pt x="354" y="-340" on="1"/>
      </contour>
    </TTGlyph>
    <TTGlyph name="uni0569" xMin="174" yMin="-492" xMax="1327" yMax="1118">
      <contour>
        <pt x="856" y="729" on="1"/>
        <pt x="942" y="725" on="1"/>
        <pt x="914" y="837" on="0"/>
        <pt x="777" y="967" on="0"/>
        <pt x="664" y="967" on="1"/>
        <pt x="502" y="967" on="0"/>
        <pt x="354" y="785" on="0"/>
        <pt x="354" y="586" on="1"/>
        <pt x="354" y="-492" on="1"/>
        <pt x="174" y="-492" on="1"/>
        <pt x="174" y="1098" on="1"/>
        <pt x="322" y="1098" on="1"/>
        <pt x="346" y="948" on="1"/>
        <pt x="354" y="948" on="1"/>
        <pt x="418" y="1038" on="0"/>
        <pt x="586" y="1118" on="0"/>
        <pt x="696" y="1118" on="1"/>
        <pt x="879" y="1118" on="0"/>
        <pt x="1108" y="895" on="0"/>
        <pt x="1137" y="686" on="1"/>
        <pt x="1234" y="659" on="0"/>
        <pt x="1327" y="618" on="1"/>
        <pt x="1278" y="481" on="1"/>
        <pt x="1214" y="509" on="0"/>
        <pt x="1147" y="528" on="1"/>
        <pt x="1144" y="264" on="0"/>
        <pt x="975" y="-20" on="0"/>
        <pt x="809" y="-20" on="1"/>
        <pt x="666" y="-20" on="0"/>
        <pt x="506" y="167" on="0"/>
        <pt x="506" y="342" on="1"/>
        <pt x="506" y="452" on="0"/>
        <pt x="592" y="630" on="0"/>
        <pt x="751" y="729" on="0"/>
      </contour>
      <contour>
        <pt x="809" y="131" on="1"/>
        <pt x="961" y="131" on="0"/>
        <pt x="961" y="553" on="1"/>
        <pt x="961" y="571" on="1"/>
        <pt x="900" y="578" on="0"/>
        <pt x="862" y="578" on="1"/>
        <pt x="780" y="578" on="0"/>
        <pt x="686" y="453" on="0"/>
        <pt x="686" y="348" on="1"/>
        <pt x="686" y="131" on="0"/>
      </contour>
    </TTGlyph>
    <TTGlyph name="uni056A" xMin="113" yMin="-20" xMax="1323" yMax="1556">
      <contour>
        <pt x="1087" y="946" on="1"/>
        <pt x="1087" y="551" on="1"/>
        <pt x="1087" y="280" on="0"/>
        <pt x="826" y="-20" on="0"/>
        <pt x="598" y="-20" on="1"/>
        <pt x="454" y="-20" on="0"/>
        <pt x="233" y="118" on="0"/>
        <pt x="113" y="376" on="0"/>
        <pt x="113" y="547" on="1"/>
        <pt x="113" y="818" on="0"/>
        <pt x="377" y="1098" on="0"/>
        <pt x="633" y="1098" on="1"/>
        <pt x="907" y="1098" on="1"/>
        <pt x="907" y="1556" on="1"/>
        <pt x="1087" y="1556" on="1"/>
        <pt x="1087" y="1098" on="1"/>
        <pt x="1323" y="1098" on="1"/>
        <pt x="1323" y="946" on="1"/>
      </contour>
      <contour>
        <pt x="907" y="946" on="1"/>
        <pt x="639" y="946" on="1"/>
        <pt x="452" y="946" on="0"/>
        <pt x="299" y="759" on="0"/>
        <pt x="299" y="543" on="1"/>
        <pt x="299" y="334" on="0"/>
        <pt x="443" y="131" on="0"/>
        <pt x="604" y="131" on="1"/>
        <pt x="765" y="131" on="0"/>
        <pt x="907" y="342" on="0"/>
        <pt x="907" y="551" on="1"/>
      </contour>
    </TTGlyph>
    <TTGlyph name="uni056B" xMin="174" yMin="-492" xMax="1100" yMax="1556">
      <contour>
        <pt x="922" y="0" on="1"/>
        <pt x="922" y="702" on="1"/>
        <pt x="922" y="836" on="0"/>
        <pt x="803" y="967" on="0"/>
        <pt x="676" y="967" on="1"/>
        <pt x="509" y="967" on="0"/>
        <pt x="354" y="781" on="0"/>
        <pt x="354" y="567" on="1"/>
        <pt x="354" y="-492" on="1"/>
        <pt x="174" y="-492" on="1"/>
        <pt x="174" y="1556" on="1"/>
        <pt x="354" y="1556" on="1"/>
        <pt x="354" y="1100" on="1"/>
        <pt x="354" y="1010" on="0"/>
        <pt x="344" y="946" on="1"/>
        <pt x="356" y="946" on="1"/>
        <pt x="405" y="1026" on="0"/>
        <pt x="585" y="1116" on="0"/>
        <pt x="698" y="1116" on="1"/>
        <pt x="898" y="1116" on="0"/>
        <pt x="1100" y="925" on="0"/>
        <pt x="1100" y="715" on="1"/>
        <pt x="1100" y="0" on="1"/>
      </contour>
    </TTGlyph>
    <TTGlyph name="uni056C" xMin="174" yMin="-492" xMax="592" yMax="1098">
      <contour>
        <pt x="174" y="1098" on="1"/>
        <pt x="354" y="1098" on="1"/>
        <pt x="354" y="-340" on="1"/>
        <pt x="592" y="-340" on="1"/>
        <pt x="592" y="-492" on="1"/>
        <pt x="174" y="-492" on="1"/>
      </contour>
    </TTGlyph>
    <TTGlyph name="uni056D" xMin="174" yMin="-492" xMax="1763" yMax="1556">
      <contour>
        <pt x="879" y="702" on="1"/>
        <pt x="879" y="967" on="0"/>
        <pt x="647" y="967" on="1"/>
        <pt x="496" y="967" on="0"/>
        <pt x="354" y="780" on="0"/>
        <pt x="354" y="567" on="1"/>
        <pt x="354" y="-492" on="1"/>
        <pt x="174" y="-492" on="1"/>
        <pt x="174" y="1556" on="1"/>
        <pt x="354" y="1556" on="1"/>
        <pt x="354" y="1100" on="1"/>
        <pt x="354" y="1010" on="0"/>
        <pt x="344" y="946" on="1"/>
        <pt x="356" y="946" on="1"/>
        <pt x="406" y="1031" on="0"/>
        <pt x="577" y="1116" on="0"/>
        <pt x="676" y="1116" on="1"/>
        <pt x="862" y="1116" on="0"/>
        <pt x="1059" y="925" on="0"/>
        <pt x="1059" y="715" on="1"/>
        <pt x="1059" y="385" on="1"/>
        <pt x="1059" y="129" on="0"/>
        <pt x="1321" y="129" on="1"/>
        <pt x="1449" y="129" on="0"/>
        <pt x="1583" y="261" on="0"/>
        <pt x="1583" y="385" on="1"/>
        <pt x="1583" y="1098" on="1"/>
        <pt x="1763" y="1098" on="1"/>
        <pt x="1763" y="385" on="1"/>
        <pt x="1763" y="196" on="0"/>
        <pt x="1526" y="-20" on="0"/>
        <pt x="1317" y="-20" on="1"/>
        <pt x="1108" y="-20" on="0"/>
        <pt x="879" y="194" on="0"/>
        <pt x="879" y="389" on="1"/>
      </contour>
    </TTGlyph>
    <TTGlyph name="uni056E" xMin="113" yMin="-20" xMax="1284" yMax="1577">
      <contour>
        <pt x="113" y="522" on="1"/>
        <pt x="113" y="698" on="0"/>
        <pt x="264" y="961" on="0"/>
        <pt x="545" y="1107" on="0"/>
        <pt x="729" y="1114" on="1"/>
        <pt x="556" y="1326" on="0"/>
        <pt x="268" y="1438" on="1"/>
        <pt x="328" y="1577" on="1"/>
        <pt x="740" y="1436" on="0"/>
        <pt x="952" y="1106" on="1"/>
        <pt x="1137" y="1087" on="0"/>
        <pt x="1284" y="1028" on="1"/>
        <pt x="1235" y="883" on="1"/>
        <pt x="1155" y="915" on="0"/>
        <pt x="1040" y="938" on="1"/>
        <pt x="1128" y="727" on="0"/>
        <pt x="1128" y="487" on="1"/>
        <pt x="1128" y="246" on="0"/>
        <pt x="857" y="-20" on="0"/>
        <pt x="616" y="-20" on="1"/>
        <pt x="374" y="-20" on="0"/>
        <pt x="113" y="264" on="0"/>
      </contour>
      <contour>
        <pt x="942" y="489" on="1"/>
        <pt x="942" y="749" on="0"/>
        <pt x="829" y="963" on="1"/>
        <pt x="799" y="965" on="1"/>
        <pt x="768" y="965" on="1"/>
        <pt x="540" y="965" on="0"/>
        <pt x="299" y="735" on="0"/>
        <pt x="299" y="522" on="1"/>
        <pt x="299" y="131" on="0"/>
        <pt x="616" y="131" on="1"/>
        <pt x="774" y="131" on="0"/>
        <pt x="942" y="313" on="0"/>
      </contour>
    </TTGlyph>
    <TTGlyph name="uni056F" xMin="166" yMin="-492" xMax="1092" yMax="1556">
      <contour>
        <pt x="344" y="1556" on="1"/>
        <pt x="344" y="395" on="1"/>
        <pt x="344" y="262" on="0"/>
        <pt x="463" y="131" on="0"/>
        <pt x="590" y="131" on="1"/>
        <pt x="757" y="131" on="0"/>
        <pt x="911" y="315" on="0"/>
        <pt x="911" y="530" on="1"/>
        <pt x="911" y="1098" on="1"/>
        <pt x="1092" y="1098" on="1"/>
        <pt x="1092" y="-492" on="1"/>
        <pt x="911" y="-492" on="1"/>
        <pt x="911" y="-2" on="1"/>
        <pt x="911" y="82" on="0"/>
        <pt x="922" y="152" on="1"/>
        <pt x="909" y="152" on="1"/>
        <pt x="859" y="71" on="0"/>
        <pt x="680" y="-18" on="0"/>
        <pt x="567" y="-18" on="1"/>
        <pt x="360" y="-18" on="0"/>
        <pt x="166" y="179" on="0"/>
        <pt x="166" y="383" on="1"/>
        <pt x="166" y="1556" on="1"/>
      </contour>
    </TTGlyph>
    <TTGlyph name="uni0570" xMin="174" yMin="0" xMax="1100" yMax="1556">
      <contour>
        <pt x="922" y="0" on="1"/>
        <pt x="922" y="702" on="1"/>
        <pt x="922" y="836" on="0"/>
        <pt x="803" y="967" on="0"/>
        <pt x="676" y="967" on="1"/>
        <pt x="509" y="967" on="0"/>
        <pt x="354" y="781" on="0"/>
        <pt x="354" y="567" on="1"/>
        <pt x="354" y="0" on="1"/>
        <pt x="174" y="0" on="1"/>
        <pt x="174" y="1556" on="1"/>
        <pt x="354" y="1556" on="1"/>
        <pt x="354" y="1100" on="1"/>
        <pt x="354" y="1010" on="0"/>
        <pt x="344" y="946" on="1"/>
        <pt x="356" y="946" on="1"/>
        <pt x="405" y="1026" on="0"/>
        <pt x="585" y="1116" on="0"/>
        <pt x="698" y="1116" on="1"/>
        <pt x="898" y="1116" on="0"/>
        <pt x="1100" y="925" on="0"/>
        <pt x="1100" y="715" on="1"/>
        <pt x="1100" y="0" on="1"/>
      </contour>
    </TTGlyph>
    <TTGlyph name="uni0571" xMin="113" yMin="-20" xMax="1085" yMax="1577">
      <contour>
        <pt x="113" y="471" on="1"/>
        <pt x="113" y="613" on="0"/>
        <pt x="191" y="795" on="0"/>
        <pt x="378" y="962" on="0"/>
        <pt x="563" y="1067" on="1"/>
        <pt x="652" y="1116" on="0"/>
        <pt x="756" y="1229" on="0"/>
        <pt x="756" y="1280" on="1"/>
        <pt x="756" y="1372" on="0"/>
        <pt x="664" y="1466" on="1"/>
        <pt x="793" y="1577" on="1"/>
        <pt x="853" y="1526" on="0"/>
        <pt x="936" y="1363" on="0"/>
        <pt x="936" y="1290" on="1"/>
        <pt x="936" y="1216" on="0"/>
        <pt x="870" y="1098" on="0"/>
        <pt x="793" y="1034" on="1"/>
        <pt x="934" y="953" on="0"/>
        <pt x="1085" y="675" on="0"/>
        <pt x="1085" y="498" on="1"/>
        <pt x="1085" y="0" on="1"/>
        <pt x="940" y="0" on="1"/>
        <pt x="913" y="147" on="1"/>
        <pt x="905" y="147" on="1"/>
        <pt x="790" y="-20" on="0"/>
        <pt x="563" y="-20" on="1"/>
        <pt x="350" y="-20" on="0"/>
        <pt x="113" y="241" on="0"/>
      </contour>
      <contour>
        <pt x="299" y="475" on="1"/>
        <pt x="299" y="308" on="0"/>
        <pt x="451" y="129" on="0"/>
        <pt x="592" y="129" on="1"/>
        <pt x="759" y="129" on="0"/>
        <pt x="907" y="304" on="0"/>
        <pt x="907" y="506" on="1"/>
        <pt x="907" y="655" on="0"/>
        <pt x="775" y="863" on="0"/>
        <pt x="649" y="936" on="1"/>
        <pt x="503" y="855" on="0"/>
        <pt x="362" y="728" on="0"/>
        <pt x="299" y="580" on="0"/>
      </contour>
    </TTGlyph>
    <TTGlyph name="uni0572" xMin="174" yMin="-492" xMax="1335" yMax="1118">
      <contour>
        <pt x="922" y="-492" on="1"/>
        <pt x="922" y="702" on="1"/>
        <pt x="922" y="836" on="0"/>
        <pt x="803" y="967" on="0"/>
        <pt x="676" y="967" on="1"/>
        <pt x="507" y="967" on="0"/>
        <pt x="354" y="780" on="0"/>
        <pt x="354" y="569" on="1"/>
        <pt x="354" y="0" on="1"/>
        <pt x="174" y="0" on="1"/>
        <pt x="174" y="1098" on="1"/>
        <pt x="319" y="1098" on="1"/>
        <pt x="346" y="948" on="1"/>
        <pt x="356" y="948" on="1"/>
        <pt x="407" y="1029" on="0"/>
        <pt x="591" y="1118" on="0"/>
        <pt x="702" y="1118" on="1"/>
        <pt x="904" y="1118" on="0"/>
        <pt x="1100" y="922" on="0"/>
        <pt x="1100" y="715" on="1"/>
        <pt x="1100" y="-340" on="1"/>
        <pt x="1335" y="-340" on="1"/>
        <pt x="1335" y="-492" on="1"/>
      </contour>
    </TTGlyph>
    <TTGlyph name="uni0573" xMin="31" yMin="-20" xMax="1153" yMax="1567">
      <contour>
        <pt x="223" y="946" on="1"/>
        <pt x="31" y="946" on="1"/>
        <pt x="31" y="1098" on="1"/>
        <pt x="223" y="1098" on="1"/>
        <pt x="223" y="1139" on="1"/>
        <pt x="223" y="1350" on="0"/>
        <pt x="461" y="1567" on="0"/>
        <pt x="694" y="1567" on="1"/>
        <pt x="796" y="1567" on="0"/>
        <pt x="991" y="1529" on="0"/>
        <pt x="1055" y="1503" on="1"/>
        <pt x="1008" y="1362" on="1"/>
        <pt x="900" y="1395" on="0"/>
        <pt x="757" y="1419" on="0"/>
        <pt x="686" y="1419" on="1"/>
        <pt x="541" y="1419" on="0"/>
        <pt x="403" y="1286" on="0"/>
        <pt x="403" y="1139" on="1"/>
        <pt x="403" y="1098" on="1"/>
        <pt x="754" y="1098" on="1"/>
        <pt x="952" y="1098" on="0"/>
        <pt x="1153" y="907" on="0"/>
        <pt x="1153" y="698" on="1"/>
        <pt x="1153" y="0" on="1"/>
        <pt x="1006" y="0" on="1"/>
        <pt x="979" y="145" on="1"/>
        <pt x="971" y="145" on="1"/>
        <pt x="922" y="68" on="0"/>
        <pt x="741" y="-20" on="0"/>
        <pt x="623" y="-20" on="1"/>
        <pt x="424" y="-20" on="0"/>
        <pt x="223" y="170" on="0"/>
        <pt x="223" y="379" on="1"/>
      </contour>
      <contour>
        <pt x="403" y="946" on="1"/>
        <pt x="403" y="391" on="1"/>
        <pt x="403" y="258" on="0"/>
        <pt x="524" y="129" on="0"/>
        <pt x="649" y="129" on="1"/>
        <pt x="819" y="129" on="0"/>
        <pt x="973" y="316" on="0"/>
        <pt x="973" y="526" on="1"/>
        <pt x="973" y="686" on="1"/>
        <pt x="973" y="819" on="0"/>
        <pt x="852" y="946" on="0"/>
        <pt x="727" y="946" on="1"/>
      </contour>
    </TTGlyph>
    <TTGlyph name="uni0574" xMin="162" yMin="-20" xMax="1151" yMax="1567">
      <contour>
        <pt x="911" y="983" on="1"/>
        <pt x="711" y="1049" on="0"/>
        <pt x="711" y="1257" on="1"/>
        <pt x="711" y="1399" on="0"/>
        <pt x="877" y="1567" on="0"/>
        <pt x="1026" y="1567" on="1"/>
        <pt x="1085" y="1567" on="0"/>
        <pt x="1151" y="1548" on="1"/>
        <pt x="1112" y="1393" on="1"/>
        <pt x="1068" y="1407" on="0"/>
        <pt x="1032" y="1407" on="1"/>
        <pt x="891" y="1407" on="0"/>
        <pt x="891" y="1260" on="1"/>
        <pt x="891" y="1098" on="0"/>
        <pt x="1069" y="1098" on="1"/>
        <pt x="1092" y="1098" on="1"/>
        <pt x="1092" y="0" on="1"/>
        <pt x="944" y="0" on="1"/>
        <pt x="918" y="145" on="1"/>
        <pt x="909" y="145" on="1"/>
        <pt x="860" y="66" on="0"/>
        <pt x="680" y="-20" on="0"/>
        <pt x="561" y="-20" on="1"/>
        <pt x="363" y="-20" on="0"/>
        <pt x="162" y="170" on="0"/>
        <pt x="162" y="379" on="1"/>
        <pt x="162" y="1098" on="1"/>
        <pt x="344" y="1098" on="1"/>
        <pt x="344" y="391" on="1"/>
        <pt x="344" y="258" on="0"/>
        <pt x="463" y="129" on="0"/>
        <pt x="588" y="129" on="1"/>
        <pt x="757" y="129" on="0"/>
        <pt x="911" y="317" on="0"/>
        <pt x="911" y="526" on="1"/>
      </contour>
    </TTGlyph>
    <TTGlyph name="uni0575" xMin="-113" yMin="-492" xMax="354" yMax="1098">
      <contour>
        <pt x="45" y="-492" on="1"/>
        <pt x="-49" y="-492" on="0"/>
        <pt x="-113" y="-467" on="1"/>
        <pt x="-113" y="-322" on="1"/>
        <pt x="-44" y="-342" on="0"/>
        <pt x="23" y="-342" on="1"/>
        <pt x="101" y="-342" on="0"/>
        <pt x="174" y="-257" on="0"/>
        <pt x="174" y="-170" on="1"/>
        <pt x="174" y="1098" on="1"/>
        <pt x="354" y="1098" on="1"/>
        <pt x="354" y="-164" on="1"/>
        <pt x="354" y="-328" on="0"/>
        <pt x="197" y="-492" on="0"/>
      </contour>
    </TTGlyph>
    <TTGlyph name="uni0576" xMin="0" yMin="-20" xMax="1133" yMax="1556">
      <contour>
        <pt x="383" y="391" on="1"/>
        <pt x="383" y="258" on="0"/>
        <pt x="504" y="129" on="0"/>
        <pt x="629" y="129" on="1"/>
        <pt x="798" y="129" on="0"/>
        <pt x="952" y="317" on="0"/>
        <pt x="952" y="526" on="1"/>
        <pt x="952" y="1098" on="1"/>
        <pt x="1133" y="1098" on="1"/>
        <pt x="1133" y="0" on="1"/>
        <pt x="985" y="0" on="1"/>
        <pt x="958" y="145" on="1"/>
        <pt x="950" y="145" on="1"/>
        <pt x="901" y="66" on="0"/>
        <pt x="721" y="-20" on="0"/>
        <pt x="602" y="-20" on="1"/>
        <pt x="404" y="-20" on="0"/>
        <pt x="203" y="170" on="0"/>
        <pt x="203" y="379" on="1"/>
        <pt x="203" y="1405" on="1"/>
        <pt x="0" y="1405" on="1"/>
        <pt x="0" y="1556" on="1"/>
        <pt x="387" y="1556" on="1"/>
      </contour>
    </TTGlyph>
    <TTGlyph name="uni0577" xMin="49" yMin="-492" xMax="899" yMax="1139">
      <contour>
        <pt x="870" y="-492" on="1"/>
        <pt x="360" y="-492" on="1"/>
        <pt x="212" y="-492" on="0"/>
        <pt x="49" y="-367" on="0"/>
        <pt x="49" y="-258" on="1"/>
        <pt x="49" y="-171" on="0"/>
        <pt x="175" y="11" on="0"/>
        <pt x="336" y="152" on="1"/>
        <pt x="557" y="347" on="0"/>
        <pt x="713" y="585" on="0"/>
        <pt x="713" y="717" on="1"/>
        <pt x="713" y="843" on="0"/>
        <pt x="578" y="987" on="0"/>
        <pt x="457" y="987" on="1"/>
        <pt x="383" y="987" on="0"/>
        <pt x="249" y="959" on="0"/>
        <pt x="137" y="911" on="1"/>
        <pt x="92" y="1059" on="1"/>
        <pt x="269" y="1139" on="0"/>
        <pt x="459" y="1139" on="1"/>
        <pt x="669" y="1139" on="0"/>
        <pt x="899" y="916" on="0"/>
        <pt x="899" y="717" on="1"/>
        <pt x="899" y="601" on="0"/>
        <pt x="826" y="419" on="0"/>
        <pt x="653" y="209" on="0"/>
        <pt x="473" y="51" on="1"/>
        <pt x="342" y="-63" on="0"/>
        <pt x="236" y="-195" on="0"/>
        <pt x="236" y="-256" on="1"/>
        <pt x="236" y="-301" on="0"/>
        <pt x="322" y="-340" on="0"/>
        <pt x="420" y="-340" on="1"/>
        <pt x="870" y="-340" on="1"/>
      </contour>
    </TTGlyph>
    <TTGlyph name="uni0578" xMin="174" yMin="0" xMax="1100" yMax="1118">
      <contour>
        <pt x="920" y="0" on="1"/>
        <pt x="920" y="702" on="1"/>
        <pt x="920" y="836" on="0"/>
        <pt x="803" y="967" on="0"/>
        <pt x="676" y="967" on="1"/>
        <pt x="507" y="967" on="0"/>
        <pt x="354" y="780" on="0"/>
        <pt x="354" y="569" on="1"/>
        <pt x="354" y="0" on="1"/>
        <pt x="174" y="0" on="1"/>
        <pt x="174" y="1098" on="1"/>
        <pt x="319" y="1098" on="1"/>
        <pt x="346" y="948" on="1"/>
        <pt x="356" y="948" on="1"/>
        <pt x="407" y="1029" on="0"/>
        <pt x="591" y="1118" on="0"/>
        <pt x="702" y="1118" on="1"/>
        <pt x="904" y="1118" on="0"/>
        <pt x="1100" y="922" on="0"/>
        <pt x="1100" y="715" on="1"/>
        <pt x="1100" y="0" on="1"/>
      </contour>
    </TTGlyph>
    <TTGlyph name="uni0579" xMin="51" yMin="-492" xMax="907" yMax="1155">
      <contour>
        <pt x="598" y="1028" on="1"/>
        <pt x="399" y="903" on="1"/>
        <pt x="350" y="868" on="0"/>
        <pt x="350" y="838" on="1"/>
        <pt x="350" y="813" on="0"/>
        <pt x="393" y="758" on="1"/>
        <pt x="711" y="360" on="1"/>
        <pt x="748" y="313" on="0"/>
        <pt x="780" y="239" on="0"/>
        <pt x="780" y="195" on="1"/>
        <pt x="780" y="135" on="0"/>
        <pt x="700" y="29" on="0"/>
        <pt x="631" y="-8" on="1"/>
        <pt x="303" y="-188" on="1"/>
        <pt x="261" y="-211" on="0"/>
        <pt x="231" y="-250" on="0"/>
        <pt x="231" y="-276" on="1"/>
        <pt x="231" y="-305" on="0"/>
        <pt x="303" y="-340" on="0"/>
        <pt x="365" y="-340" on="1"/>
        <pt x="907" y="-340" on="1"/>
        <pt x="907" y="-492" on="1"/>
        <pt x="342" y="-492" on="1"/>
        <pt x="204" y="-492" on="0"/>
        <pt x="51" y="-380" on="0"/>
        <pt x="51" y="-283" on="1"/>
        <pt x="51" y="-214" on="0"/>
        <pt x="143" y="-103" on="0"/>
        <pt x="248" y="-43" on="1"/>
        <pt x="537" y="119" on="1"/>
        <pt x="600" y="154" on="0"/>
        <pt x="600" y="207" on="1"/>
        <pt x="600" y="227" on="0"/>
        <pt x="563" y="272" on="1"/>
        <pt x="260" y="653" on="1"/>
        <pt x="217" y="707" on="0"/>
        <pt x="170" y="795" on="0"/>
        <pt x="170" y="846" on="1"/>
        <pt x="170" y="898" on="0"/>
        <pt x="239" y="986" on="0"/>
        <pt x="315" y="1034" on="1"/>
        <pt x="508" y="1155" on="1"/>
      </contour>
    </TTGlyph>
    <TTGlyph name="uni057A" xMin="166" yMin="-492" xMax="1741" yMax="1098">
      <contour>
        <pt x="1561" y="-492" on="1"/>
        <pt x="1561" y="-12" on="1"/>
        <pt x="1561" y="45" on="0"/>
        <pt x="1570" y="116" on="1"/>
        <pt x="1573" y="150" on="1"/>
        <pt x="1559" y="150" on="1"/>
        <pt x="1512" y="70" on="0"/>
        <pt x="1341" y="-20" on="0"/>
        <pt x="1235" y="-20" on="1"/>
        <pt x="977" y="-20" on="0"/>
        <pt x="899" y="164" on="1"/>
        <pt x="889" y="164" on="1"/>
        <pt x="836" y="76" on="0"/>
        <pt x="653" y="-20" on="0"/>
        <pt x="537" y="-20" on="1"/>
        <pt x="351" y="-20" on="0"/>
        <pt x="166" y="171" on="0"/>
        <pt x="166" y="383" on="1"/>
        <pt x="166" y="1098" on="1"/>
        <pt x="344" y="1098" on="1"/>
        <pt x="344" y="391" on="1"/>
        <pt x="344" y="131" on="0"/>
        <pt x="567" y="131" on="1"/>
        <pt x="720" y="131" on="0"/>
        <pt x="864" y="309" on="0"/>
        <pt x="864" y="492" on="1"/>
        <pt x="864" y="1098" on="1"/>
        <pt x="1042" y="1098" on="1"/>
        <pt x="1042" y="391" on="1"/>
        <pt x="1042" y="261" on="0"/>
        <pt x="1152" y="131" on="0"/>
        <pt x="1268" y="131" on="1"/>
        <pt x="1420" y="131" on="0"/>
        <pt x="1561" y="318" on="0"/>
        <pt x="1561" y="528" on="1"/>
        <pt x="1561" y="1098" on="1"/>
        <pt x="1741" y="1098" on="1"/>
        <pt x="1741" y="-492" on="1"/>
      </contour>
    </TTGlyph>
    <TTGlyph name="uni057B" xMin="111" yMin="-492" xMax="1151" yMax="1118">
      <contour>
        <pt x="236" y="-236" on="1"/>
        <pt x="236" y="-74" on="0"/>
        <pt x="453" y="74" on="1"/>
        <pt x="421" y="135" on="0"/>
        <pt x="326" y="227" on="1"/>
        <pt x="226" y="323" on="0"/>
        <pt x="153" y="430" on="0"/>
        <pt x="111" y="557" on="0"/>
        <pt x="111" y="635" on="1"/>
        <pt x="111" y="857" on="0"/>
        <pt x="388" y="1118" on="0"/>
        <pt x="625" y="1118" on="1"/>
        <pt x="871" y="1118" on="0"/>
        <pt x="1151" y="852" on="0"/>
        <pt x="1151" y="625" on="1"/>
        <pt x="1151" y="447" on="0"/>
        <pt x="952" y="184" on="0"/>
        <pt x="723" y="51" on="1"/>
        <pt x="593" y="-24" on="0"/>
        <pt x="472" y="-113" on="0"/>
        <pt x="420" y="-188" on="0"/>
        <pt x="420" y="-238" on="1"/>
        <pt x="420" y="-295" on="0"/>
        <pt x="502" y="-340" on="0"/>
        <pt x="594" y="-340" on="1"/>
        <pt x="1096" y="-340" on="1"/>
        <pt x="1096" y="-492" on="1"/>
        <pt x="530" y="-492" on="1"/>
        <pt x="388" y="-492" on="0"/>
        <pt x="236" y="-360" on="0"/>
      </contour>
      <contour>
        <pt x="295" y="612" on="1"/>
        <pt x="295" y="557" on="0"/>
        <pt x="328" y="468" on="0"/>
        <pt x="385" y="390" on="0"/>
        <pt x="478" y="300" on="1"/>
        <pt x="567" y="214" on="0"/>
        <pt x="594" y="166" on="1"/>
        <pt x="786" y="274" on="0"/>
        <pt x="967" y="489" on="0"/>
        <pt x="967" y="616" on="1"/>
        <pt x="967" y="791" on="0"/>
        <pt x="790" y="967" on="0"/>
        <pt x="625" y="967" on="1"/>
        <pt x="295" y="967" on="0"/>
      </contour>
    </TTGlyph>
    <TTGlyph name="uni057C" xMin="174" yMin="0" xMax="1335" yMax="1118">
      <contour>
        <pt x="922" y="0" on="1"/>
        <pt x="922" y="702" on="1"/>
        <pt x="922" y="836" on="0"/>
        <pt x="803" y="967" on="0"/>
        <pt x="676" y="967" on="1"/>
        <pt x="507" y="967" on="0"/>
        <pt x="354" y="780" on="0"/>
        <pt x="354" y="569" on="1"/>
        <pt x="354" y="0" on="1"/>
        <pt x="174" y="0" on="1"/>
        <pt x="174" y="1098" on="1"/>
        <pt x="319" y="1098" on="1"/>
        <pt x="346" y="948" on="1"/>
        <pt x="356" y="948" on="1"/>
        <pt x="407" y="1029" on="0"/>
        <pt x="591" y="1118" on="0"/>
        <pt x="702" y="1118" on="1"/>
        <pt x="904" y="1118" on="0"/>
        <pt x="1100" y="922" on="0"/>
        <pt x="1100" y="715" on="1"/>
        <pt x="1100" y="152" on="1"/>
        <pt x="1335" y="152" on="1"/>
        <pt x="1335" y="0" on="1"/>
      </contour>
    </TTGlyph>
    <TTGlyph name="uni057D" xMin="162" yMin="-20" xMax="1092" yMax="1098">
      <contour>
        <pt x="344" y="1098" on="1"/>
        <pt x="344" y="391" on="1"/>
        <pt x="344" y="258" on="0"/>
        <pt x="463" y="129" on="0"/>
        <pt x="588" y="129" on="1"/>
        <pt x="757" y="129" on="0"/>
        <pt x="911" y="317" on="0"/>
        <pt x="911" y="526" on="1"/>
        <pt x="911" y="1098" on="1"/>
        <pt x="1092" y="1098" on="1"/>
        <pt x="1092" y="0" on="1"/>
        <pt x="944" y="0" on="1"/>
        <pt x="918" y="145" on="1"/>
        <pt x="909" y="145" on="1"/>
        <pt x="860" y="66" on="0"/>
        <pt x="680" y="-20" on="0"/>
        <pt x="561" y="-20" on="1"/>
        <pt x="363" y="-20" on="0"/>
        <pt x="162" y="170" on="0"/>
        <pt x="162" y="379" on="1"/>
        <pt x="162" y="1098" on="1"/>
      </contour>
    </TTGlyph>
    <TTGlyph name="uni057E" xMin="166" yMin="-492" xMax="1325" yMax="1556">
      <contour>
        <pt x="911" y="-2" on="1"/>
        <pt x="911" y="82" on="0"/>
        <pt x="922" y="152" on="1"/>
        <pt x="909" y="152" on="1"/>
        <pt x="859" y="71" on="0"/>
        <pt x="680" y="-18" on="0"/>
        <pt x="567" y="-18" on="1"/>
        <pt x="360" y="-18" on="0"/>
        <pt x="166" y="179" on="0"/>
        <pt x="166" y="383" on="1"/>
        <pt x="166" y="1098" on="1"/>
        <pt x="344" y="1098" on="1"/>
        <pt x="344" y="395" on="1"/>
        <pt x="344" y="262" on="0"/>
        <pt x="463" y="131" on="0"/>
        <pt x="590" y="131" on="1"/>
        <pt x="757" y="131" on="0"/>
        <pt x="911" y="315" on="0"/>
        <pt x="911" y="530" on="1"/>
        <pt x="911" y="1556" on="1"/>
        <pt x="1092" y="1556" on="1"/>
        <pt x="1090" y="-340" on="1"/>
        <pt x="1325" y="-340" on="1"/>
        <pt x="1325" y="-492" on="1"/>
        <pt x="911" y="-492" on="1"/>
      </contour>
    </TTGlyph>
    <TTGlyph name="uni057F" xMin="164" yMin="-20" xMax="1745" yMax="1118">
      <contour>
        <pt x="897" y="0" on="1"/>
        <pt x="870" y="145" on="1"/>
        <pt x="862" y="145" on="1"/>
        <pt x="817" y="68" on="0"/>
        <pt x="649" y="-20" on="0"/>
        <pt x="537" y="-20" on="1"/>
        <pt x="346" y="-20" on="0"/>
        <pt x="164" y="176" on="0"/>
        <pt x="164" y="379" on="1"/>
        <pt x="164" y="1098" on="1"/>
        <pt x="344" y="1098" on="1"/>
        <pt x="344" y="391" on="1"/>
        <pt x="344" y="129" on="0"/>
        <pt x="569" y="129" on="1"/>
        <pt x="722" y="129" on="0"/>
        <pt x="864" y="316" on="0"/>
        <pt x="864" y="526" on="1"/>
        <pt x="864" y="1098" on="1"/>
        <pt x="1010" y="1098" on="1"/>
        <pt x="1036" y="948" on="1"/>
        <pt x="1047" y="948" on="1"/>
        <pt x="1093" y="1028" on="0"/>
        <pt x="1267" y="1118" on="0"/>
        <pt x="1374" y="1118" on="1"/>
        <pt x="1561" y="1118" on="0"/>
        <pt x="1745" y="922" on="0"/>
        <pt x="1745" y="715" on="1"/>
        <pt x="1745" y="0" on="1"/>
        <pt x="1565" y="0" on="1"/>
        <pt x="1565" y="702" on="1"/>
        <pt x="1565" y="836" on="0"/>
        <pt x="1457" y="967" on="0"/>
        <pt x="1341" y="967" on="1"/>
        <pt x="1187" y="967" on="0"/>
        <pt x="1044" y="776" on="0"/>
        <pt x="1044" y="569" on="1"/>
        <pt x="1044" y="0" on="1"/>
      </contour>
    </TTGlyph>
    <TTGlyph name="uni0580" xMin="174" yMin="-492" xMax="1100" yMax="1118">
      <contour>
        <pt x="922" y="0" on="1"/>
        <pt x="922" y="702" on="1"/>
        <pt x="922" y="836" on="0"/>
        <pt x="803" y="967" on="0"/>
        <pt x="676" y="967" on="1"/>
        <pt x="507" y="967" on="0"/>
        <pt x="354" y="780" on="0"/>
        <pt x="354" y="569" on="1"/>
        <pt x="354" y="-492" on="1"/>
        <pt x="174" y="-492" on="1"/>
        <pt x="174" y="1098" on="1"/>
        <pt x="319" y="1098" on="1"/>
        <pt x="346" y="948" on="1"/>
        <pt x="356" y="948" on="1"/>
        <pt x="407" y="1029" on="0"/>
        <pt x="591" y="1118" on="0"/>
        <pt x="702" y="1118" on="1"/>
        <pt x="904" y="1118" on="0"/>
        <pt x="1100" y="922" on="0"/>
        <pt x="1100" y="715" on="1"/>
        <pt x="1100" y="0" on="1"/>
      </contour>
    </TTGlyph>
    <TTGlyph name="uni0581" xMin="111" yMin="-492" xMax="1083" yMax="1118">
      <contour>
        <pt x="590" y="127" on="1"/>
        <pt x="756" y="127" on="0"/>
        <pt x="907" y="306" on="0"/>
        <pt x="907" y="504" on="1"/>
        <pt x="907" y="547" on="1"/>
        <pt x="907" y="767" on="0"/>
        <pt x="755" y="967" on="0"/>
        <pt x="586" y="967" on="1"/>
        <pt x="447" y="967" on="0"/>
        <pt x="297" y="748" on="0"/>
        <pt x="297" y="545" on="1"/>
        <pt x="297" y="341" on="0"/>
        <pt x="444" y="127" on="0"/>
      </contour>
      <contour>
        <pt x="905" y="10" on="1"/>
        <pt x="911" y="145" on="1"/>
        <pt x="903" y="145" on="1"/>
        <pt x="792" y="-20" on="0"/>
        <pt x="563" y="-20" on="1"/>
        <pt x="350" y="-20" on="0"/>
        <pt x="111" y="277" on="0"/>
        <pt x="111" y="547" on="1"/>
        <pt x="111" y="814" on="0"/>
        <pt x="352" y="1118" on="0"/>
        <pt x="561" y="1118" on="1"/>
        <pt x="784" y="1118" on="0"/>
        <pt x="905" y="952" on="1"/>
        <pt x="915" y="952" on="1"/>
        <pt x="940" y="1098" on="1"/>
        <pt x="1083" y="1098" on="1"/>
        <pt x="1083" y="-18" on="1"/>
        <pt x="1083" y="-254" on="0"/>
        <pt x="844" y="-492" on="0"/>
        <pt x="592" y="-492" on="1"/>
        <pt x="352" y="-492" on="0"/>
        <pt x="197" y="-422" on="1"/>
        <pt x="197" y="-256" on="1"/>
        <pt x="357" y="-342" on="0"/>
        <pt x="602" y="-342" on="1"/>
        <pt x="748" y="-342" on="0"/>
        <pt x="905" y="-196" on="0"/>
        <pt x="905" y="-33" on="1"/>
      </contour>
    </TTGlyph>
    <TTGlyph name="uni0582" xMin="174" yMin="0" xMax="592" yMax="1098">
      <contour>
        <pt x="174" y="1098" on="1"/>
        <pt x="354" y="1098" on="1"/>
        <pt x="354" y="152" on="1"/>
        <pt x="592" y="152" on="1"/>
        <pt x="592" y="0" on="1"/>
        <pt x="174" y="0" on="1"/>
      </contour>
    </TTGlyph>
    <TTGlyph name="uni0583" xMin="164" yMin="-492" xMax="1745" yMax="1556">
      <contour>
        <pt x="864" y="-492" on="1"/>
        <pt x="864" y="-8" on="1"/>
        <pt x="864" y="81" on="0"/>
        <pt x="870" y="145" on="1"/>
        <pt x="862" y="145" on="1"/>
        <pt x="817" y="68" on="0"/>
        <pt x="649" y="-20" on="0"/>
        <pt x="537" y="-20" on="1"/>
        <pt x="346" y="-20" on="0"/>
        <pt x="164" y="176" on="0"/>
        <pt x="164" y="379" on="1"/>
        <pt x="164" y="1098" on="1"/>
        <pt x="344" y="1098" on="1"/>
        <pt x="344" y="391" on="1"/>
        <pt x="344" y="129" on="0"/>
        <pt x="569" y="129" on="1"/>
        <pt x="722" y="129" on="0"/>
        <pt x="864" y="316" on="0"/>
        <pt x="864" y="526" on="1"/>
        <pt x="864" y="1556" on="1"/>
        <pt x="1044" y="1556" on="1"/>
        <pt x="1044" y="1102" on="1"/>
        <pt x="1044" y="1012" on="0"/>
        <pt x="1034" y="948" on="1"/>
        <pt x="1047" y="948" on="1"/>
        <pt x="1093" y="1028" on="0"/>
        <pt x="1267" y="1118" on="0"/>
        <pt x="1374" y="1118" on="1"/>
        <pt x="1561" y="1118" on="0"/>
        <pt x="1745" y="922" on="0"/>
        <pt x="1745" y="715" on="1"/>
        <pt x="1745" y="0" on="1"/>
        <pt x="1565" y="0" on="1"/>
        <pt x="1565" y="702" on="1"/>
        <pt x="1565" y="836" on="0"/>
        <pt x="1457" y="967" on="0"/>
        <pt x="1341" y="967" on="1"/>
        <pt x="1187" y="967" on="0"/>
        <pt x="1044" y="776" on="0"/>
        <pt x="1044" y="569" on="1"/>
        <pt x="1044" y="-492" on="1"/>
      </contour>
    </TTGlyph>
    <TTGlyph name="uni0584" xMin="0" yMin="-492" xMax="1147" yMax="1118">
      <contour>
        <pt x="694" y="0" on="1"/>
        <pt x="474" y="0" on="0"/>
        <pt x="354" y="160" on="1"/>
        <pt x="342" y="160" on="1"/>
        <pt x="354" y="52" on="0"/>
        <pt x="354" y="-20" on="1"/>
        <pt x="354" y="-156" on="1"/>
        <pt x="1096" y="-156" on="1"/>
        <pt x="1096" y="-307" on="1"/>
        <pt x="354" y="-307" on="1"/>
        <pt x="354" y="-492" on="1"/>
        <pt x="174" y="-492" on="1"/>
        <pt x="174" y="-307" on="1"/>
        <pt x="0" y="-307" on="1"/>
        <pt x="0" y="-156" on="1"/>
        <pt x="174" y="-156" on="1"/>
        <pt x="174" y="1098" on="1"/>
        <pt x="322" y="1098" on="1"/>
        <pt x="346" y="948" on="1"/>
        <pt x="354" y="948" on="1"/>
        <pt x="418" y="1038" on="0"/>
        <pt x="586" y="1118" on="0"/>
        <pt x="696" y="1118" on="1"/>
        <pt x="914" y="1118" on="0"/>
        <pt x="1147" y="827" on="0"/>
        <pt x="1147" y="561" on="1"/>
        <pt x="1147" y="294" on="0"/>
        <pt x="910" y="0" on="0"/>
      </contour>
      <contour>
        <pt x="664" y="967" on="1"/>
        <pt x="505" y="967" on="0"/>
        <pt x="359" y="791" on="0"/>
        <pt x="354" y="586" on="1"/>
        <pt x="354" y="571" on="1"/>
        <pt x="354" y="347" on="0"/>
        <pt x="503" y="150" on="0"/>
        <pt x="668" y="150" on="1"/>
        <pt x="808" y="150" on="0"/>
        <pt x="961" y="367" on="0"/>
        <pt x="961" y="563" on="1"/>
        <pt x="961" y="759" on="0"/>
        <pt x="810" y="967" on="0"/>
      </contour>
    </TTGlyph>
    <TTGlyph name="uni0585" xMin="113" yMin="-20" xMax="1128" yMax="1118">
      <contour>
        <pt x="1128" y="551" on="1"/>
        <pt x="1128" y="282" on="0"/>
        <pt x="856" y="-20" on="0"/>
        <pt x="616" y="-20" on="1"/>
        <pt x="467" y="-20" on="0"/>
        <pt x="237" y="119" on="0"/>
        <pt x="113" y="379" on="0"/>
        <pt x="113" y="551" on="1"/>
        <pt x="113" y="817" on="0"/>
        <pt x="382" y="1118" on="0"/>
        <pt x="623" y="1118" on="1"/>
        <pt x="855" y="1118" on="0"/>
        <pt x="1128" y="813" on="0"/>
      </contour>
      <contour>
        <pt x="299" y="551" on="1"/>
        <pt x="299" y="344" on="0"/>
        <pt x="462" y="129" on="0"/>
        <pt x="621" y="129" on="1"/>
        <pt x="778" y="129" on="0"/>
        <pt x="942" y="344" on="0"/>
        <pt x="942" y="551" on="1"/>
        <pt x="942" y="758" on="0"/>
        <pt x="777" y="967" on="0"/>
        <pt x="618" y="967" on="1"/>
        <pt x="299" y="967" on="0"/>
      </contour>
    </TTGlyph>
    <TTGlyph name="uni0586" xMin="92" yMin="-492" xMax="1135" yMax="1556">
      <contour>
        <pt x="1135" y="381" on="1"/>
        <pt x="1135" y="218" on="0"/>
        <pt x="891" y="-2" on="0"/>
        <pt x="698" y="-16" on="1"/>
        <pt x="698" y="-492" on="1"/>
        <pt x="518" y="-492" on="1"/>
        <pt x="518" y="-18" on="1"/>
        <pt x="224" y="-5" on="0"/>
        <pt x="92" y="61" on="1"/>
        <pt x="92" y="229" on="1"/>
        <pt x="174" y="193" on="0"/>
        <pt x="404" y="141" on="0"/>
        <pt x="518" y="133" on="1"/>
        <pt x="518" y="717" on="1"/>
        <pt x="308" y="782" on="0"/>
        <pt x="104" y="1000" on="0"/>
        <pt x="104" y="1163" on="1"/>
        <pt x="104" y="1338" on="0"/>
        <pt x="388" y="1556" on="0"/>
        <pt x="621" y="1556" on="1"/>
        <pt x="698" y="1556" on="1"/>
        <pt x="698" y="840" on="1"/>
        <pt x="923" y="769" on="0"/>
        <pt x="1135" y="546" on="0"/>
      </contour>
      <contour>
        <pt x="948" y="383" on="1"/>
        <pt x="948" y="462" on="0"/>
        <pt x="900" y="557" on="0"/>
        <pt x="793" y="632" on="0"/>
        <pt x="698" y="666" on="1"/>
        <pt x="698" y="135" on="1"/>
        <pt x="823" y="151" on="0"/>
        <pt x="948" y="283" on="0"/>
      </contour>
      <contour>
        <pt x="287" y="1165" on="1"/>
        <pt x="287" y="1085" on="0"/>
        <pt x="332" y="994" on="0"/>
        <pt x="433" y="922" on="0"/>
        <pt x="518" y="891" on="1"/>
        <pt x="518" y="1397" on="1"/>
        <pt x="409" y="1383" on="0"/>
        <pt x="287" y="1262" on="0"/>
      </contour>
    </TTGlyph>
    <TTGlyph name="uni0587" xMin="166" yMin="-18" xMax="1325" yMax="1556">
      <contour>
        <pt x="922" y="152" on="1"/>
        <pt x="909" y="152" on="1"/>
        <pt x="859" y="71" on="0"/>
        <pt x="680" y="-18" on="0"/>
        <pt x="567" y="-18" on="1"/>
        <pt x="360" y="-18" on="0"/>
        <pt x="166" y="179" on="0"/>
        <pt x="166" y="383" on="1"/>
        <pt x="166" y="1556" on="1"/>
        <pt x="344" y="1556" on="1"/>
        <pt x="344" y="395" on="1"/>
        <pt x="344" y="262" on="0"/>
        <pt x="463" y="131" on="0"/>
        <pt x="590" y="131" on="1"/>
        <pt x="757" y="131" on="0"/>
        <pt x="911" y="315" on="0"/>
        <pt x="911" y="530" on="1"/>
        <pt x="911" y="1098" on="1"/>
        <pt x="1092" y="1098" on="1"/>
        <pt x="1090" y="152" on="1"/>
        <pt x="1325" y="152" on="1"/>
        <pt x="1325" y="0" on="1"/>
        <pt x="944" y="0" on="1"/>
      </contour>
    </TTGlyph>
    <TTGlyph name="uni0589" xMin="147" yMin="-29" xMax="401" yMax="1126">
      <contour>
        <pt x="147" y="111" on="1"/>
        <pt x="147" y="177" on="0"/>
        <pt x="212" y="248" on="0"/>
        <pt x="272" y="248" on="1"/>
        <pt x="333" y="248" on="0"/>
        <pt x="401" y="176" on="0"/>
        <pt x="401" y="111" on="1"/>
        <pt x="401" y="46" on="0"/>
        <pt x="333" y="-29" on="0"/>
        <pt x="272" y="-29" on="1"/>
        <pt x="213" y="-29" on="0"/>
        <pt x="147" y="45" on="0"/>
      </contour>
      <contour>
        <pt x="147" y="987" on="1"/>
        <pt x="147" y="1053" on="0"/>
        <pt x="210" y="1126" on="0"/>
        <pt x="272" y="1126" on="1"/>
        <pt x="335" y="1126" on="0"/>
        <pt x="401" y="1054" on="0"/>
        <pt x="401" y="987" on="1"/>
        <pt x="401" y="923" on="0"/>
        <pt x="333" y="848" on="0"/>
        <pt x="272" y="848" on="1"/>
        <pt x="220" y="848" on="0"/>
        <pt x="147" y="914" on="0"/>
      </contour>
    </TTGlyph>
    <TTGlyph name="uni058A" xMin="102" yMin="406" xMax="803" yMax="692">
      <contour>
        <pt x="287" y="692" on="1"/>
        <pt x="287" y="632" on="0"/>
        <pt x="365" y="557" on="0"/>
        <pt x="446" y="557" on="1"/>
        <pt x="586" y="557" on="0"/>
        <pt x="766" y="596" on="1"/>
        <pt x="803" y="512" on="1"/>
        <pt x="727" y="465" on="0"/>
        <pt x="508" y="406" on="0"/>
        <pt x="410" y="406" on="1"/>
        <pt x="250" y="406" on="0"/>
        <pt x="102" y="545" on="0"/>
        <pt x="102" y="692" on="1"/>
      </contour>
    </TTGlyph>
    <TTGlyph name="uni058F" xMin="66" yMin="0" xMax="1040" yMax="1483">
      <contour>
        <pt x="258" y="932" on="1"/>
        <pt x="594" y="932" on="1"/>
        <pt x="594" y="1067" on="1"/>
        <pt x="594" y="1199" on="0"/>
        <pt x="520" y="1329" on="0"/>
        <pt x="428" y="1329" on="1"/>
        <pt x="387" y="1329" on="0"/>
        <pt x="317" y="1313" on="0"/>
        <pt x="254" y="1281" on="0"/>
        <pt x="193" y="1235" on="0"/>
        <pt x="162" y="1204" on="1"/>
        <pt x="66" y="1325" on="1"/>
        <pt x="103" y="1358" on="0"/>
        <pt x="185" y="1416" on="0"/>
        <pt x="277" y="1458" on="0"/>
        <pt x="379" y="1483" on="0"/>
        <pt x="436" y="1483" on="1"/>
        <pt x="518" y="1483" on="0"/>
        <pt x="645" y="1436" on="0"/>
        <pt x="731" y="1338" on="0"/>
        <pt x="776" y="1185" on="0"/>
        <pt x="776" y="1079" on="1"/>
        <pt x="776" y="932" on="1"/>
        <pt x="1040" y="932" on="1"/>
        <pt x="1040" y="799" on="1"/>
        <pt x="776" y="799" on="1"/>
        <pt x="776" y="637" on="1"/>
        <pt x="1040" y="637" on="1"/>
        <pt x="1040" y="504" on="1"/>
        <pt x="776" y="504" on="1"/>
        <pt x="776" y="0" on="1"/>
        <pt x="594" y="0" on="1"/>
        <pt x="594" y="504" on="1"/>
        <pt x="258" y="504" on="1"/>
        <pt x="258" y="637" on="1"/>
        <pt x="594" y="637" on="1"/>
        <pt x="594" y="799" on="1"/>
        <pt x="258" y="799" on="1"/>
      </contour>
    </TTGlyph>
    <TTGlyph name="uniFB13" xMin="162" yMin="-20" xMax="2300" yMax="1567">
      <contour>
        <pt x="893" y="0" on="1"/>
        <pt x="868" y="145" on="1"/>
        <pt x="860" y="145" on="1"/>
        <pt x="815" y="68" on="0"/>
        <pt x="647" y="-20" on="0"/>
        <pt x="535" y="-20" on="1"/>
        <pt x="344" y="-20" on="0"/>
        <pt x="162" y="176" on="0"/>
        <pt x="162" y="379" on="1"/>
        <pt x="162" y="1098" on="1"/>
        <pt x="342" y="1098" on="1"/>
        <pt x="342" y="391" on="1"/>
        <pt x="342" y="129" on="0"/>
        <pt x="561" y="129" on="1"/>
        <pt x="711" y="129" on="0"/>
        <pt x="850" y="316" on="0"/>
        <pt x="850" y="526" on="1"/>
        <pt x="850" y="946" on="1"/>
        <pt x="782" y="946" on="1"/>
        <pt x="612" y="946" on="0"/>
        <pt x="453" y="1090" on="0"/>
        <pt x="453" y="1249" on="1"/>
        <pt x="453" y="1325" on="0"/>
        <pt x="494" y="1425" on="1"/>
        <pt x="651" y="1382" on="1"/>
        <pt x="621" y="1311" on="0"/>
        <pt x="621" y="1255" on="1"/>
        <pt x="621" y="1168" on="0"/>
        <pt x="692" y="1098" on="0"/>
        <pt x="784" y="1098" on="1"/>
        <pt x="850" y="1098" on="1"/>
        <pt x="850" y="1167" on="1"/>
        <pt x="850" y="1367" on="0"/>
        <pt x="1025" y="1567" on="0"/>
        <pt x="1206" y="1567" on="1"/>
        <pt x="1313" y="1567" on="0"/>
        <pt x="1419" y="1530" on="1"/>
        <pt x="1372" y="1389" on="1"/>
        <pt x="1279" y="1419" on="0"/>
        <pt x="1208" y="1419" on="1"/>
        <pt x="1117" y="1419" on="0"/>
        <pt x="1030" y="1299" on="0"/>
        <pt x="1030" y="1169" on="1"/>
        <pt x="1030" y="1098" on="1"/>
        <pt x="1612" y="1098" on="1"/>
        <pt x="1612" y="391" on="1"/>
        <pt x="1612" y="258" on="0"/>
        <pt x="1719" y="129" on="0"/>
        <pt x="1831" y="129" on="1"/>
        <pt x="1981" y="129" on="0"/>
        <pt x="2120" y="316" on="0"/>
        <pt x="2120" y="526" on="1"/>
        <pt x="2120" y="1098" on="1"/>
        <pt x="2300" y="1098" on="1"/>
        <pt x="2300" y="0" on="1"/>
        <pt x="2163" y="0" on="1"/>
        <pt x="2138" y="145" on="1"/>
        <pt x="2130" y="145" on="1"/>
        <pt x="2085" y="68" on="0"/>
        <pt x="1915" y="-20" on="0"/>
        <pt x="1804" y="-20" on="1"/>
        <pt x="1620" y="-20" on="0"/>
        <pt x="1432" y="170" on="0"/>
        <pt x="1432" y="379" on="1"/>
        <pt x="1432" y="946" on="1"/>
        <pt x="1030" y="946" on="1"/>
        <pt x="1030" y="0" on="1"/>
      </contour>
    </TTGlyph>
    <TTGlyph name="uniFB14" xMin="162" yMin="-20" xMax="2300" yMax="1556">
      <contour>
        <pt x="1030" y="0" on="1"/>
        <pt x="893" y="0" on="1"/>
        <pt x="868" y="145" on="1"/>
        <pt x="860" y="145" on="1"/>
        <pt x="815" y="68" on="0"/>
        <pt x="647" y="-20" on="0"/>
        <pt x="535" y="-20" on="1"/>
        <pt x="344" y="-20" on="0"/>
        <pt x="162" y="176" on="0"/>
        <pt x="162" y="379" on="1"/>
        <pt x="162" y="1098" on="1"/>
        <pt x="342" y="1098" on="1"/>
        <pt x="342" y="391" on="1"/>
        <pt x="342" y="129" on="0"/>
        <pt x="561" y="129" on="1"/>
        <pt x="711" y="129" on="0"/>
        <pt x="850" y="316" on="0"/>
        <pt x="850" y="526" on="1"/>
        <pt x="850" y="1157" on="1"/>
        <pt x="850" y="1357" on="0"/>
        <pt x="1026" y="1556" on="0"/>
        <pt x="1206" y="1556" on="1"/>
        <pt x="1612" y="1556" on="1"/>
        <pt x="1612" y="1098" on="1"/>
        <pt x="2300" y="1098" on="1"/>
        <pt x="2300" y="946" on="1"/>
        <pt x="1612" y="946" on="1"/>
        <pt x="1612" y="391" on="1"/>
        <pt x="1612" y="258" on="0"/>
        <pt x="1719" y="129" on="0"/>
        <pt x="1831" y="129" on="1"/>
        <pt x="1981" y="129" on="0"/>
        <pt x="2120" y="316" on="0"/>
        <pt x="2120" y="526" on="1"/>
        <pt x="2120" y="688" on="1"/>
        <pt x="2300" y="688" on="1"/>
        <pt x="2300" y="0" on="1"/>
        <pt x="2163" y="0" on="1"/>
        <pt x="2138" y="145" on="1"/>
        <pt x="2130" y="145" on="1"/>
        <pt x="2085" y="68" on="0"/>
        <pt x="1915" y="-20" on="0"/>
        <pt x="1804" y="-20" on="1"/>
        <pt x="1620" y="-20" on="0"/>
        <pt x="1432" y="170" on="0"/>
        <pt x="1432" y="379" on="1"/>
        <pt x="1432" y="1409" on="1"/>
        <pt x="1208" y="1409" on="1"/>
        <pt x="1112" y="1409" on="0"/>
        <pt x="1030" y="1294" on="0"/>
        <pt x="1030" y="1159" on="1"/>
      </contour>
    </TTGlyph>
    <TTGlyph name="uniFB15" xMin="162" yMin="-492" xMax="2300" yMax="1556">
      <contour>
        <pt x="1612" y="1100" on="1"/>
        <pt x="1612" y="1010" on="0"/>
        <pt x="1602" y="946" on="1"/>
        <pt x="1614" y="946" on="1"/>
        <pt x="1662" y="1031" on="0"/>
        <pt x="1832" y="1116" on="0"/>
        <pt x="1931" y="1116" on="1"/>
        <pt x="2116" y="1116" on="0"/>
        <pt x="2300" y="925" on="0"/>
        <pt x="2300" y="715" on="1"/>
        <pt x="2300" y="0" on="1"/>
        <pt x="2120" y="0" on="1"/>
        <pt x="2120" y="702" on="1"/>
        <pt x="2120" y="836" on="0"/>
        <pt x="2017" y="967" on="0"/>
        <pt x="1903" y="967" on="1"/>
        <pt x="1751" y="967" on="0"/>
        <pt x="1612" y="781" on="0"/>
        <pt x="1612" y="567" on="1"/>
        <pt x="1612" y="-492" on="1"/>
        <pt x="1432" y="-492" on="1"/>
        <pt x="1432" y="1409" on="1"/>
        <pt x="1208" y="1409" on="1"/>
        <pt x="1112" y="1409" on="0"/>
        <pt x="1030" y="1294" on="0"/>
        <pt x="1030" y="1159" on="1"/>
        <pt x="1030" y="0" on="1"/>
        <pt x="893" y="0" on="1"/>
        <pt x="868" y="145" on="1"/>
        <pt x="860" y="145" on="1"/>
        <pt x="815" y="68" on="0"/>
        <pt x="647" y="-20" on="0"/>
        <pt x="535" y="-20" on="1"/>
        <pt x="344" y="-20" on="0"/>
        <pt x="162" y="176" on="0"/>
        <pt x="162" y="379" on="1"/>
        <pt x="162" y="1098" on="1"/>
        <pt x="342" y="1098" on="1"/>
        <pt x="342" y="391" on="1"/>
        <pt x="342" y="129" on="0"/>
        <pt x="561" y="129" on="1"/>
        <pt x="711" y="129" on="0"/>
        <pt x="850" y="316" on="0"/>
        <pt x="850" y="526" on="1"/>
        <pt x="850" y="1157" on="1"/>
        <pt x="850" y="1357" on="0"/>
        <pt x="1026" y="1556" on="0"/>
        <pt x="1206" y="1556" on="1"/>
        <pt x="1612" y="1556" on="1"/>
      </contour>
    </TTGlyph>
    <TTGlyph name="uniFB16" xMin="162" yMin="-492" xMax="2300" yMax="1556">
      <contour>
        <pt x="850" y="-43" on="1"/>
        <pt x="850" y="62" on="0"/>
        <pt x="868" y="145" on="1"/>
        <pt x="860" y="145" on="1"/>
        <pt x="815" y="68" on="0"/>
        <pt x="647" y="-20" on="0"/>
        <pt x="535" y="-20" on="1"/>
        <pt x="344" y="-20" on="0"/>
        <pt x="162" y="176" on="0"/>
        <pt x="162" y="379" on="1"/>
        <pt x="162" y="1098" on="1"/>
        <pt x="342" y="1098" on="1"/>
        <pt x="342" y="391" on="1"/>
        <pt x="342" y="129" on="0"/>
        <pt x="561" y="129" on="1"/>
        <pt x="711" y="129" on="0"/>
        <pt x="850" y="316" on="0"/>
        <pt x="850" y="526" on="1"/>
        <pt x="850" y="946" on="1"/>
        <pt x="782" y="946" on="1"/>
        <pt x="612" y="946" on="0"/>
        <pt x="453" y="1090" on="0"/>
        <pt x="453" y="1249" on="1"/>
        <pt x="453" y="1325" on="0"/>
        <pt x="494" y="1425" on="1"/>
        <pt x="651" y="1382" on="1"/>
        <pt x="621" y="1311" on="0"/>
        <pt x="621" y="1255" on="1"/>
        <pt x="621" y="1168" on="0"/>
        <pt x="692" y="1098" on="0"/>
        <pt x="784" y="1098" on="1"/>
        <pt x="850" y="1098" on="1"/>
        <pt x="850" y="1556" on="1"/>
        <pt x="1030" y="1556" on="1"/>
        <pt x="1030" y="1098" on="1"/>
        <pt x="1612" y="1098" on="1"/>
        <pt x="1612" y="391" on="1"/>
        <pt x="1612" y="258" on="0"/>
        <pt x="1719" y="129" on="0"/>
        <pt x="1831" y="129" on="1"/>
        <pt x="1981" y="129" on="0"/>
        <pt x="2120" y="316" on="0"/>
        <pt x="2120" y="526" on="1"/>
        <pt x="2120" y="1098" on="1"/>
        <pt x="2300" y="1098" on="1"/>
        <pt x="2300" y="0" on="1"/>
        <pt x="2163" y="0" on="1"/>
        <pt x="2138" y="145" on="1"/>
        <pt x="2130" y="145" on="1"/>
        <pt x="2085" y="68" on="0"/>
        <pt x="1915" y="-20" on="0"/>
        <pt x="1804" y="-20" on="1"/>
        <pt x="1620" y="-20" on="0"/>
        <pt x="1432" y="170" on="0"/>
        <pt x="1432" y="379" on="1"/>
        <pt x="1432" y="946" on="1"/>
        <pt x="1030" y="946" on="1"/>
        <pt x="1030" y="-340" on="1"/>
        <pt x="1268" y="-340" on="1"/>
        <pt x="1268" y="-492" on="1"/>
        <pt x="850" y="-492" on="1"/>
      </contour>
    </TTGlyph>
    <TTGlyph name="uniFB17" xMin="162" yMin="-492" xMax="2988" yMax="1556">
      <contour>
        <pt x="2120" y="702" on="1"/>
        <pt x="2120" y="836" on="0"/>
        <pt x="2017" y="967" on="0"/>
        <pt x="1903" y="967" on="1"/>
        <pt x="1751" y="967" on="0"/>
        <pt x="1612" y="781" on="0"/>
        <pt x="1612" y="567" on="1"/>
        <pt x="1612" y="-492" on="1"/>
        <pt x="1432" y="-492" on="1"/>
        <pt x="1432" y="1409" on="1"/>
        <pt x="1208" y="1409" on="1"/>
        <pt x="1112" y="1409" on="0"/>
        <pt x="1030" y="1294" on="0"/>
        <pt x="1030" y="1159" on="1"/>
        <pt x="1030" y="0" on="1"/>
        <pt x="893" y="0" on="1"/>
        <pt x="868" y="145" on="1"/>
        <pt x="860" y="145" on="1"/>
        <pt x="815" y="68" on="0"/>
        <pt x="647" y="-20" on="0"/>
        <pt x="535" y="-20" on="1"/>
        <pt x="344" y="-20" on="0"/>
        <pt x="162" y="176" on="0"/>
        <pt x="162" y="379" on="1"/>
        <pt x="162" y="1098" on="1"/>
        <pt x="342" y="1098" on="1"/>
        <pt x="342" y="391" on="1"/>
        <pt x="342" y="129" on="0"/>
        <pt x="561" y="129" on="1"/>
        <pt x="711" y="129" on="0"/>
        <pt x="850" y="316" on="0"/>
        <pt x="850" y="526" on="1"/>
        <pt x="850" y="1157" on="1"/>
        <pt x="850" y="1357" on="0"/>
        <pt x="1026" y="1556" on="0"/>
        <pt x="1206" y="1556" on="1"/>
        <pt x="1612" y="1556" on="1"/>
        <pt x="1612" y="1100" on="1"/>
        <pt x="1612" y="1010" on="0"/>
        <pt x="1602" y="946" on="1"/>
        <pt x="1614" y="946" on="1"/>
        <pt x="1662" y="1031" on="0"/>
        <pt x="1832" y="1116" on="0"/>
        <pt x="1931" y="1116" on="1"/>
        <pt x="2121" y="1116" on="0"/>
        <pt x="2300" y="921" on="0"/>
        <pt x="2300" y="717" on="1"/>
        <pt x="2300" y="385" on="1"/>
        <pt x="2300" y="129" on="0"/>
        <pt x="2554" y="129" on="1"/>
        <pt x="2808" y="129" on="0"/>
        <pt x="2808" y="385" on="1"/>
        <pt x="2808" y="1098" on="1"/>
        <pt x="2988" y="1098" on="1"/>
        <pt x="2988" y="385" on="1"/>
        <pt x="2988" y="195" on="0"/>
        <pt x="2758" y="-20" on="0"/>
        <pt x="2550" y="-20" on="1"/>
        <pt x="2341" y="-20" on="0"/>
        <pt x="2120" y="194" on="0"/>
        <pt x="2120" y="389" on="1"/>
      </contour>
    </TTGlyph>
</ttFont>
